<?xml version="1.0" encoding="UTF-8" standalone="no"?>
<svg
   xmlns:dc="http://purl.org/dc/elements/1.1/"
   xmlns:cc="http://creativecommons.org/ns#"
   xmlns:rdf="http://www.w3.org/1999/02/22-rdf-syntax-ns#"
   xmlns:svg="http://www.w3.org/2000/svg"
   xmlns="http://www.w3.org/2000/svg"
   xmlns:sodipodi="http://sodipodi.sourceforge.net/DTD/sodipodi-0.dtd"
   xmlns:inkscape="http://www.inkscape.org/namespaces/inkscape"
   sodipodi:docname="logo2.1.svg"
   inkscape:version="1.0 (4035a4fb49, 2020-05-01)"
   id="svg8"
   version="1.1"
   viewBox="0 0 209.94554 209.94554"
   height="209.94554mm"
   width="209.94554mm">
  <defs
     id="defs2" />
  <sodipodi:namedview
     fit-margin-bottom="0"
     fit-margin-right="0"
     fit-margin-left="0"
     fit-margin-top="0"
     inkscape:window-maximized="1"
     inkscape:window-y="-9"
     inkscape:window-x="-9"
     inkscape:window-height="1425"
     inkscape:window-width="2256"
     showgrid="false"
     inkscape:document-rotation="0"
     inkscape:current-layer="layer3"
     inkscape:document-units="mm"
     inkscape:cy="430.46663"
     inkscape:cx="173.1978"
     inkscape:zoom="0.7"
     inkscape:pageshadow="2"
     inkscape:pageopacity="0.0"
     borderopacity="1.0"
     bordercolor="#666666"
     pagecolor="#ffffff"
     id="base" />
  <metadata
     id="metadata5">
    <rdf:RDF>
      <cc:Work
         rdf:about="">
        <dc:format>image/svg+xml</dc:format>
        <dc:type
           rdf:resource="http://purl.org/dc/dcmitype/StillImage" />
        <dc:title />
      </cc:Work>
    </rdf:RDF>
  </metadata>
  <g
     transform="translate(-0.40699768,-45.461754)"
     inkscape:label="circle"
     id="layer3"
     inkscape:groupmode="layer">
    <circle
       r="100.34925"
       cy="150.43452"
       cx="105.37977"
       id="path887"
       style="fill:none;stroke:currentColor;stroke-width:9.24704;stroke-miterlimit:4;stroke-dasharray:none;stroke-opacity:1" />
  </g>
  <g
     transform="translate(-0.40699768,-45.461754)"
     style="display:inline"
     inkscape:label="main"
     id="layer2"
     inkscape:groupmode="layer">
    <path
       d="m 36.604778,103.81849 c 0.01434,-0.0109 0.02854,-0.022 0.04304,-0.0326 0.03849,-0.0283 0.05985,-0.0433 0.100732,-0.0683 0.01688,-0.0103 0.05151,-0.0495 0.05132,-0.0297 -1.91e-4,0.0203 -0.05244,0.0124 -0.05135,0.0327 0.0011,0.0189 0.03458,-0.0153 0.05187,-0.0229 0.07995,-0.0337 0.163444,-0.0574 0.247788,-0.077 0.06144,-0.0117 0.122279,-0.0252 0.182715,-0.0413 0.17521,-0.0506 0.351402,-0.0976 0.528347,-0.14174 0.160446,-0.0389 0.320691,-0.0786 0.481182,-0.11727 0.171849,-0.0419 0.345207,-0.077 0.518938,-0.11005 0.153,-0.0285 0.307006,-0.0506 0.461298,-0.0706 0.142669,-0.0191 0.286433,-0.0265 0.429908,-0.0365 0.158208,-0.0101 0.31595,-0.026 0.472512,-0.0509 0.196109,-0.0345 0.388942,-0.0844 0.582477,-0.13068 0.156409,-0.0335 0.313079,-0.0649 0.468651,-0.10223 0.258567,-0.0665 0.516708,-0.1343 0.776873,-0.19433 0.304061,-0.0614 0.609383,-0.11582 0.913183,-0.17878 0.342455,-0.0722 0.684331,-0.14729 1.028567,-0.21065 0.29903,-0.0388 0.594503,-0.0949 0.889437,-0.15718 0.373927,-0.0822 0.747008,-0.16813 1.120619,-0.25172 0.289576,-0.0618 0.578149,-0.12758 0.865026,-0.20093 0.273878,-0.0715 0.547415,-0.1445 0.822491,-0.21134 0.145873,-0.0376 0.294193,-0.0637 0.443323,-0.0842 0.163248,-0.0212 0.325565,-0.0487 0.488035,-0.075 0.117395,-0.0179 0.23351,-0.0427 0.349435,-0.0682 0.08807,-0.0213 0.177622,-0.035 0.266959,-0.0496 0.05233,-0.008 0.104894,-0.0136 0.157551,-0.0184 0.04001,-0.004 0.08009,-0.003 0.12019,-0.002 0.02114,10e-4 0.04228,5.3e-4 0.06342,2.7e-4 0.01609,-5.3e-4 0.03196,7.9e-4 0.04791,0.002 0.01365,0.002 0.02731,0.003 0.04106,0.004 0.02746,-9e-5 0.05467,0.003 0.08196,0.006 0.01006,0.002 0.02011,0.002 0.03031,0.002 0.01421,0.002 0.03848,-0.0232 0.04343,-0.0268 0,0 0.03213,-0.0239 0.03213,-0.0239 v 0 c 0.01026,-0.008 0.04116,-0.0285 0.02864,-0.0257 -0.01011,5.3e-4 -0.02027,0.001 -0.03038,1.4e-4 -0.02739,-0.003 -0.05497,-0.004 -0.08247,-0.006 -0.01307,-10e-4 -0.02625,-0.002 -0.03916,-0.005 -0.01606,-0.002 -0.03232,-0.004 -0.04855,-0.004 -0.02127,1.2e-4 -0.04252,5e-5 -0.06378,5.3e-4 -0.04075,-7.9e-4 -0.08159,-5.3e-4 -0.122274,0.002 -0.05369,0.005 -0.10713,0.0118 -0.160473,0.0194 -0.09022,0.0144 -0.180419,0.0296 -0.269406,0.0504 -0.117367,0.0273 -0.235088,0.0531 -0.354053,0.0725 -0.163719,0.0289 -0.32775,0.0562 -0.492461,0.0788 -0.151384,0.0215 -0.30208,0.0479 -0.449868,0.0877 -0.278567,0.072 -0.555898,0.14872 -0.834525,0.22053 -0.287449,0.0718 -0.576982,0.13399 -0.865439,0.2015 -0.374343,0.0864 -0.748331,0.17449 -1.124103,0.25455 -0.292513,0.0605 -0.586497,0.10994 -0.882208,0.152 -0.345139,0.0626 -0.687049,0.14094 -1.030523,0.21187 -0.301464,0.0614 -0.604954,0.11136 -0.906259,0.17326 -0.257022,0.0582 -0.51208,0.12403 -0.767869,0.18733 -0.155448,0.0372 -0.312369,0.0671 -0.468331,0.10202 -0.192558,0.0455 -0.384167,0.096 -0.579342,0.12939 -0.154704,0.0239 -0.310401,0.0393 -0.466717,0.0479 -0.142235,0.009 -0.284713,0.0158 -0.426238,0.0329 -0.15362,0.0169 -0.306803,0.0382 -0.458576,0.0676 -0.172387,0.0316 -0.344649,0.0644 -0.514938,0.1061 -0.161554,0.04 -0.323082,0.0802 -0.484729,0.11985 -0.174954,0.0451 -0.349901,0.0903 -0.524077,0.13833 -0.06127,0.0158 -0.122491,0.0315 -0.184708,0.0432 -0.0875,0.0216 -0.17436,0.0465 -0.257495,0.0817 -0.143698,0.0624 -0.277625,0.14635 -0.402294,0.24084 0,0 0.111268,-0.0444 0.111268,-0.0444 z"
       id="path832"
       style="stroke:currentColor;stroke-width:6.61458;stroke-miterlimit:4;stroke-dasharray:none;stroke-opacity:1" />
    <path
       d="m 46.132583,105.50429 c 0.07445,-0.0995 0.146695,-0.20052 0.219699,-0.30103 0.054,-0.0732 0.103902,-0.14916 0.151792,-0.22643 0.05922,-0.0972 0.113194,-0.19745 0.167841,-0.29725 0.06427,-0.11721 0.129989,-0.23363 0.200636,-0.34713 0.08124,-0.12815 0.175257,-0.24738 0.268735,-0.36665 0.129775,-0.16656 0.261651,-0.33147 0.395242,-0.49498 0.133982,-0.16591 0.266809,-0.33275 0.401114,-0.4984 0.173265,-0.21482 0.349358,-0.4273 0.530055,-0.63591 0.134864,-0.15384 0.27595,-0.30196 0.419751,-0.44742 0.197096,-0.19535 0.408504,-0.37549 0.618009,-0.55722 0.196977,-0.1697 0.395795,-0.33726 0.588893,-0.5114 0.212918,-0.19877 0.417846,-0.40579 0.628513,-0.60693 0.190788,-0.18292 0.389731,-0.356868 0.590637,-0.528498 0.217583,-0.182271 0.430366,-0.370117 0.647719,-0.552653 0.208629,-0.174787 0.422367,-0.343318 0.633526,-0.515006 0.226586,-0.181176 0.435925,-0.382527 0.641397,-0.586949 0.20523,-0.211733 0.408755,-0.42499 0.617125,-0.633654 0.246968,-0.252735 0.48844,-0.510751 0.733946,-0.764923 0.268452,-0.276059 0.539928,-0.549151 0.809432,-0.82418 0.235273,-0.236265 0.45929,-0.483002 0.680633,-0.732216 0.271256,-0.304551 0.556384,-0.596294 0.842145,-0.88714 0.306419,-0.316942 0.629391,-0.616921 0.955265,-0.913572 0.384712,-0.348051 0.76754,-0.69818 1.156382,-1.041627 0.36747,-0.320657 0.739505,-0.636066 1.112364,-0.950431 0.370861,-0.314508 0.753687,-0.614421 1.134078,-0.917202 0.339281,-0.272169 0.672751,-0.551389 1.016326,-0.818161 0.27028,-0.20729 0.552688,-0.397816 0.83635,-0.586086 0.135245,-0.08646 0.267365,-0.177459 0.398526,-0.269933 0.08377,-0.05972 0.167365,-0.119777 0.253675,-0.175795 0.02336,-0.01471 0.04657,-0.0297 0.06989,-0.04449 -0.0027,7.93e-4 -0.0054,0.0016 -0.0081,0.0026 0,0 -0.120605,0.04709 -0.120605,0.04709 v 0 c -0.0043,0.0019 -0.0085,0.0037 -0.01275,0.0056 -0.02143,0.01442 -0.04313,0.02839 -0.06473,0.04254 -0.08354,0.05599 -0.164846,0.115223 -0.246761,0.17354 -0.129598,0.09089 -0.259996,0.180589 -0.392488,0.267232 -0.277535,0.187626 -0.554003,0.377108 -0.820224,0.580652 -0.339286,0.264191 -0.667089,0.542406 -1.001694,0.81244 -0.381022,0.304043 -0.766908,0.602178 -1.137603,0.918927 -0.371054,0.313118 -0.740698,0.627962 -1.105797,0.948015 -0.387077,0.342405 -0.767524,0.692073 -1.150281,1.039281 -0.328525,0.298326 -0.655064,0.599128 -0.964131,0.917816 -0.285486,0.29169 -0.567537,0.586785 -0.842987,0.887997 -0.222601,0.247798 -0.445965,0.494951 -0.680471,0.73166 -0.267359,0.274378 -0.536612,0.546899 -0.803476,0.821754 -0.248206,0.255955 -0.49357,0.514664 -0.743625,0.768805 -0.205925,0.208735 -0.408313,0.420788 -0.612163,0.631534 -0.20605,0.205078 -0.416851,0.405775 -0.644451,0.587089 -0.209587,0.169481 -0.41951,0.338571 -0.625809,0.512066 -0.219302,0.18356 -0.435163,0.371137 -0.653976,0.555281 -0.199223,0.170117 -0.395396,0.343887 -0.583607,0.526207 -0.212397,0.20252 -0.419203,0.41088 -0.635362,0.60944 -0.191175,0.17236 -0.386435,0.34011 -0.581414,0.50814 -0.212601,0.18326 -0.427001,0.36501 -0.627304,0.56184 -0.143618,0.1447 -0.28431,0.2924 -0.417197,0.4471 -0.180615,0.20922 -0.355481,0.42327 -0.531119,0.63667 -0.137417,0.16688 -0.274601,0.33394 -0.410192,0.50232 -0.132667,0.16513 -0.26647,0.32936 -0.397267,0.496 -0.0957,0.12051 -0.193241,0.23999 -0.274902,0.37078 -0.06983,0.11331 -0.133895,0.22993 -0.197919,0.34659 -0.05572,0.10036 -0.112577,0.20014 -0.171907,0.29842 -0.04656,0.0759 -0.09549,0.15033 -0.146564,0.22327 -0.07073,0.10128 -0.142546,0.20188 -0.21776,0.29989 0,0 0.105,-0.0453 0.105,-0.0453 z"
       id="path834"
       style="stroke:currentColor;stroke-width:6.61458;stroke-miterlimit:4;stroke-dasharray:none;stroke-opacity:1" />
    <path
       d="m 63.88837,88.37234 c 0.154115,0.107511 0.306343,0.218118 0.453078,0.335553 0.116668,0.09501 0.230495,0.193386 0.344361,0.291716 0.107098,0.09263 0.210296,0.189579 0.313976,0.285962 0.09051,0.08572 0.180498,0.171945 0.267194,0.261538 0.08863,0.08798 0.169117,0.183303 0.245679,0.281815 0.06305,0.08263 0.118787,0.1704 0.177681,0.255943 0.07003,0.109489 0.15748,0.204964 0.24838,0.297105 0.100132,0.09347 0.205259,0.181208 0.31469,0.263531 0.113353,0.08469 0.22896,0.165425 0.351605,0.236095 0.172135,0.0941 0.351967,0.173313 0.530056,0.255344 0.138649,0.06524 0.274804,0.13533 0.407106,0.212612 0.101984,0.06097 0.198247,0.130553 0.291992,0.203382 0.08024,0.06175 0.152614,0.13262 0.227258,0.20079 0.144381,0.140898 0.298847,0.269864 0.456735,0.395171 0.251409,0.193021 0.510355,0.376055 0.767225,0.561708 0.210587,0.154278 0.418672,0.311891 0.630045,0.465092 0.214754,0.157226 0.442272,0.29591 0.671285,0.43112 0.22952,0.139586 0.467005,0.265139 0.70808,0.383397 0.325424,0.155292 0.66326,0.282094 1.002692,0.402818 0.190391,0.06549 0.381156,0.130392 0.575481,0.183322 0.190352,0.04923 0.386909,0.06914 0.581081,0.09753 0.567931,0.0854 1.132814,0.189987 1.697575,0.294018 0.423243,0.07608 0.845132,0.159565 1.265589,0.249738 0.194043,0.04223 0.387067,0.08861 0.583946,0.115525 0.218924,0.02609 0.437671,0.05307 0.655698,0.08587 0.266227,0.03817 0.524754,0.113506 0.782228,0.188994 0.247605,0.07318 0.493276,0.152509 0.738809,0.232286 0.360635,0.116266 0.723556,0.225023 1.087729,0.32961 0.358851,0.103862 0.719793,0.200004 1.083664,0.284586 0.330623,0.08704 0.669777,0.122555 1.009438,0.150757 0.423958,0.03246 0.848945,0.04684 1.273575,0.06707 0.518792,0.02693 1.037013,0.0636 1.55517,0.100545 0.555562,0.04001 1.111227,0.07991 1.667415,0.11023 0.475941,0.02154 0.952418,0.01177 1.428636,0.01498 0.667549,0.01429 1.335167,0.02117 2.002819,0.01212 0.626309,-0.0127 1.25235,-0.03503 1.877928,-0.06766 0.56628,-0.04146 1.132253,-0.08307 1.699705,-0.104286 0.745069,-0.01524 1.490297,0.0081 2.235044,0.02882 0.565216,0.01733 1.130585,0.02315 1.696018,0.01886 0.557009,-0.0048 1.112076,-0.05698 1.666362,-0.107479 0.605302,-0.05598 1.209762,-0.120261 1.813822,-0.18819 0.66941,-0.08495 1.33908,-0.167293 2.00971,-0.242125 0.74396,-0.08804 1.48882,-0.166865 2.2354,-0.228846 0.74695,-0.05627 1.49473,-0.100296 2.24144,-0.159697 0.86323,-0.0702 1.72415,-0.165177 2.58371,-0.270555 0.45222,-0.06015 0.90642,-0.110549 1.35462,-0.196977 0.42236,-0.09229 0.83286,-0.230802 1.24547,-0.35826 0.6493,-0.196685 1.30314,-0.37787 1.95745,-0.557024 0.53744,-0.15934 1.09031,-0.25591 1.63164,-0.398931 0.0779,-0.01566 0.15579,-0.03131 0.23369,-0.04696 0,0 0.0238,-0.01704 0.0238,-0.01704 v 0 c -0.0252,-0.02363 -0.0505,-0.04726 -0.0757,-0.07089 -0.0462,-0.01027 -0.0912,-0.03147 -0.13854,-0.0308 -0.0779,0.0011 -0.15444,0.02164 -0.23104,0.03605 -0.37786,0.07112 -0.748,0.17889 -1.11882,0.278802 -0.65541,0.181004 -1.30967,0.366408 -1.96181,0.558877 -0.40941,0.124521 -0.81649,0.259694 -1.23409,0.354761 -0.45862,0.09461 -0.92271,0.158935 -1.38622,0.224192 -0.85997,0.113911 -1.72234,0.209688 -2.58742,0.275614 -0.74935,0.05642 -1.4993,0.104233 -2.24836,0.164386 -0.75586,0.0684 -1.50918,0.160305 -2.26298,0.248187 -0.66969,0.07673 -1.33893,0.157133 -2.00782,0.240583 -0.60952,0.0736 -1.21946,0.144108 -1.830726,0.201763 -0.556199,0.04997 -1.112943,0.100965 -1.671505,0.114149 -0.57242,0.01095 -1.144979,0.0089 -1.7174,-0.0021 -0.746601,-0.01281 -1.493266,-0.03916 -2.240044,-0.02714 -0.570876,0.01995 -1.139775,0.06332 -1.708989,0.110426 -0.630563,0.03878 -1.261954,0.06543 -1.893527,0.0804 -0.663062,0.009 -1.325949,0.0021 -1.988685,-0.02172 -0.47583,-0.0057 -0.951881,0.0046 -1.427496,-0.01453 -0.559869,-0.02535 -1.119291,-0.05947 -1.678136,-0.10183 -0.515832,-0.03902 -1.031399,-0.0831 -1.54827,-0.106309 -0.425527,-0.01913 -0.8513,-0.03498 -1.276292,-0.06402 -0.34159,-0.02811 -0.683022,-0.06328 -1.017556,-0.141012 -0.369779,-0.07971 -0.737441,-0.16867 -1.101793,-0.270566 -0.365641,-0.10288 -0.73028,-0.209539 -1.091854,-0.326011 -0.248616,-0.07754 -0.496496,-0.157578 -0.747612,-0.226828 -0.257241,-0.07567 -0.515395,-0.151569 -0.780812,-0.193177 -0.217172,-0.03359 -0.435165,-0.0608 -0.653235,-0.08784 -0.19889,-0.02953 -0.39611,-0.06796 -0.593201,-0.107699 -0.428246,-0.08005 -0.856094,-0.162335 -1.285454,-0.236299 -0.561909,-0.09856 -1.123474,-0.199141 -1.684308,-0.303633 -0.187736,-0.03439 -0.376095,-0.06638 -0.56229,-0.108522 -0.199673,-0.04817 -0.397098,-0.10532 -0.592027,-0.1701 -0.340478,-0.115141 -0.676928,-0.24321 -0.999804,-0.40201 -0.240956,-0.119476 -0.479716,-0.243512 -0.712044,-0.379167 -0.229759,-0.136162 -0.458195,-0.274656 -0.679715,-0.423997 -0.215992,-0.150257 -0.431247,-0.301541 -0.644435,-0.455769 -0.255714,-0.185669 -0.513323,-0.368932 -0.76195,-0.564118 -0.154903,-0.12645 -0.305779,-0.257567 -0.446243,-0.400092 -0.072,-0.0718 -0.144531,-0.143439 -0.227571,-0.202687 -0.09498,-0.0725 -0.191855,-0.143055 -0.294484,-0.20442 -0.134191,-0.07659 -0.271253,-0.148317 -0.412588,-0.210904 -0.17825,-0.08015 -0.357744,-0.158875 -0.528511,-0.254244 -0.119279,-0.07331 -0.235209,-0.152016 -0.346263,-0.237342 -0.108519,-0.08266 -0.217776,-0.164975 -0.315724,-0.260294 -0.09234,-0.08945 -0.17453,-0.187688 -0.245187,-0.295307 -0.05812,-0.08651 -0.115612,-0.17354 -0.178096,-0.257008 -0.07777,-0.09827 -0.158425,-0.194821 -0.248148,-0.282491 -0.08827,-0.08827 -0.176043,-0.177064 -0.267528,-0.262048 -0.102558,-0.09832 -0.211304,-0.189881 -0.317061,-0.284708 -0.112157,-0.100869 -0.228042,-0.197718 -0.345842,-0.29193 -0.149524,-0.113591 -0.302347,-0.222647 -0.450895,-0.337529 0,0 -0.137686,0.08733 -0.137686,0.08733 z"
       id="path836"
       style="stroke:currentColor;stroke-width:6.61458;stroke-miterlimit:4;stroke-dasharray:none;stroke-opacity:1" />
    <path
       d="m 116.18889,94.424224 c 0.49251,-0.02442 0.97955,-0.104191 1.4607,-0.208897 0.30526,-0.06755 0.59955,-0.171786 0.88802,-0.290676 0.2459,-0.106953 0.49443,-0.20746 0.74588,-0.300588 0.27865,-0.10582 0.56706,-0.180557 0.85773,-0.244494 0.26212,-0.04965 0.5252,-0.09437 0.78827,-0.138776 0.3325,-0.05285 0.66278,-0.11625 0.99142,-0.189191 0.50274,-0.111429 1.00328,-0.232058 1.50272,-0.35733 0.81086,-0.209785 1.62128,-0.421132 2.43022,-0.638207 0.93969,-0.258709 1.88619,-0.490008 2.8402,-0.689186 0.72369,-0.150741 1.45665,-0.24909 2.18875,-0.348099 0.90626,-0.114076 1.81527,-0.205023 2.72343,-0.302538 0.81769,-0.08818 1.63302,-0.196358 2.44861,-0.301765 0.75386,-0.104432 1.51208,-0.170038 2.27025,-0.233368 0.95565,-0.07018 1.91012,-0.155041 2.8644,-0.241795 1.00407,-0.08686 2.00555,-0.189307 3.0002,-0.352586 1.13632,-0.211847 2.25793,-0.493488 3.37054,-0.805032 0.93067,-0.255757 1.8087,-0.660853 2.69137,-1.044118 0.91867,-0.399063 1.84046,-0.79076 2.76749,-1.169984 0.77835,-0.319516 1.57027,-0.602962 2.37007,-0.863479 0.66826,-0.213061 1.34179,-0.409186 2.01839,-0.593918 0.52854,-0.148066 1.06583,-0.260757 1.60942,-0.335613 0.28637,-0.03614 0.57452,-0.05457 0.86237,-0.0742 0.16795,-0.01278 0.33563,-0.02876 0.50383,-0.03814 0.0926,-0.0085 0.18652,-0.0043 0.27866,-0.01767 0.0549,-0.03391 0.10972,-0.06782 0.16458,-0.101732 0,0 0.0869,-0.06461 0.0869,-0.06461 v 0 c 0.0351,-0.03172 0.0702,-0.06344 0.10537,-0.09516 -0.0886,-0.0094 -0.17878,0.0118 -0.26774,0.0088 -0.17119,0.0098 -0.34143,0.03149 -0.51247,0.04346 -0.29411,0.02413 -0.58908,0.04125 -0.88124,0.08471 -0.55016,0.07884 -1.09503,0.192026 -1.62974,0.344437 -0.68149,0.18561 -1.35983,0.382921 -2.03154,0.601533 -0.80682,0.266491 -1.60831,0.549526 -2.39256,0.877453 -0.94257,0.395576 -1.87954,0.804233 -2.81808,1.209233 -0.89133,0.387107 -1.77882,0.791147 -2.71324,1.065845 -1.12437,0.330777 -2.25986,0.626788 -3.41287,0.840732 -1.00331,0.167267 -2.0129,0.287901 -3.02649,0.373936 -0.95714,0.09171 -1.9145,0.181554 -2.87371,0.248965 -0.75608,0.05792 -1.51254,0.116221 -2.26317,0.227023 -0.82174,0.109633 -1.64268,0.22593 -2.46691,0.315807 -0.90422,0.104118 -1.81088,0.185229 -2.7144,0.295404 -0.73759,0.09569 -1.47522,0.198343 -2.20242,0.356862 -0.95788,0.20769 -1.91135,0.435338 -2.85532,0.69985 -0.79875,0.210719 -1.59916,0.414787 -2.40044,0.615632 -0.49778,0.126204 -0.99716,0.246303 -1.49905,0.355198 -0.32653,0.0705 -0.65484,0.130932 -0.98449,0.185013 -0.2634,0.04459 -0.52732,0.08666 -0.7894,0.138504 -0.29171,0.06477 -0.58125,0.140078 -0.86164,0.244472 -0.25297,0.09287 -0.50304,0.193278 -0.74946,0.302445 -0.29831,0.12704 -0.60302,0.239461 -0.91824,0.317386 -0.48708,0.117333 -0.98301,0.214747 -1.48512,0.22986 0,0 -0.08,0.05859 -0.08,0.05859 z"
       id="path840"
       style="stroke:currentColor;stroke-width:6.61458;stroke-miterlimit:4;stroke-dasharray:none;stroke-opacity:1" />
    <path
       d="m 161.75025,84.633384 c -0.0508,0.408482 -0.0506,0.814768 0.002,1.222391 0.0854,0.524576 0.28197,1.021368 0.48457,1.50972 0.20063,0.494773 0.44378,0.969457 0.70927,1.432028 0.28147,0.444344 0.54967,0.896813 0.82246,1.346475 0.28557,0.465656 0.5656,0.934622 0.8265,1.414592 0.24686,0.452382 0.47262,0.915766 0.68685,1.384337 0.35586,0.856441 0.69584,1.719178 1.05713,2.573436 0.35509,0.855715 0.77693,1.680551 1.21694,2.49496 0.50223,0.906478 1.0231,1.802389 1.52754,2.707657 0.42585,0.76425 0.82641,1.54207 1.23802,2.31395 0.27466,0.52601 0.56617,1.04244 0.89384,1.53722 0.40397,0.57785 0.79491,1.16437 1.1727,1.75962 0.23136,0.36738 0.45201,0.74142 0.68481,1.10788 0.13568,0.21008 0.26672,0.42274 0.38861,0.6411 0.0496,0.0378 0.0748,0.2436 0.14695,0.25194 0.0265,0.003 0.0525,-0.009 0.0787,-0.0142 0.0954,-0.0254 0.0472,-0.01 0.14442,-0.0475 0,0 0.0966,-0.0555 0.0966,-0.0555 v 0 c 0.0818,-0.0654 0.0439,-0.0314 0.11445,-0.10144 0.0175,-0.0204 0.0415,-0.0367 0.0525,-0.0613 0.0303,-0.0678 -0.1316,-0.19404 -0.1377,-0.25796 -0.12673,-0.21694 -0.26583,-0.42629 -0.407,-0.63405 -0.23961,-0.36268 -0.47009,-0.73132 -0.7158,-1.08998 -0.39282,-0.58561 -0.78365,-1.17251 -1.18205,-1.75435 -0.32336,-0.49568 -0.6192,-1.00786 -0.90855,-1.52405 -0.42794,-0.7627 -0.85757,-1.52447 -1.28764,-2.28598 -0.50968,-0.902037 -1.02816,-1.799073 -1.53518,-2.702572 -0.4421,-0.810871 -0.87927,-1.625544 -1.24609,-2.474039 -0.36666,-0.853575 -0.69387,-1.722155 -1.03799,-2.584826 -0.20353,-0.475427 -0.43106,-0.938641 -0.68645,-1.388652 -0.26671,-0.477594 -0.549,-0.945547 -0.83857,-1.40965 -0.27427,-0.448569 -0.54896,-0.896866 -0.82498,-1.344345 -0.27471,-0.454428 -0.52596,-0.922412 -0.73626,-1.410544 -0.19911,-0.485302 -0.39513,-0.977493 -0.49266,-1.495031 -0.0575,-0.402934 -0.0693,-0.80821 -0.004,-1.211773 0,0 -0.30349,0.150476 -0.30349,0.150476 z"
       id="path842"
       style="stroke:currentColor;stroke-width:6.61458;stroke-miterlimit:4;stroke-dasharray:none;stroke-opacity:1" />
    <path
       d="m 171.45125,101.8811 c 0.56708,0.01 1.13413,-0.003 1.70126,-0.002 0.73338,0.002 1.46316,0.0762 2.19138,0.15497 0.62247,0.0668 1.24382,0.14614 1.85821,0.26722 0.481,0.098 0.95135,0.24056 1.42233,0.37736 0.55656,0.15567 1.10851,0.32666 1.65787,0.50591 0.40931,0.13555 0.81852,0.27139 1.22774,0.40723 0.38859,0.13035 0.78494,0.2352 1.17907,0.34703 0.32345,0.0915 0.64539,0.18839 0.96445,0.29423 0.13043,0.0407 0.25715,0.0912 0.38299,0.14411 0.052,0.0257 0.13644,-0.0435 0.17438,-0.0648 0,0 0.21445,-0.14419 0.21445,-0.14419 v 0 c 0.001,-7.9e-4 0.14912,-0.0911 0.0722,-0.10252 -0.13982,-0.0417 -0.2816,-0.0765 -0.42061,-0.12113 -0.32752,-0.0958 -0.6548,-0.1923 -0.98386,-0.28272 -0.39536,-0.10944 -0.79129,-0.2174 -1.18206,-0.3425 -0.4146,-0.13289 -0.82981,-0.26385 -1.24455,-0.39629 -0.55438,-0.17057 -1.10831,-0.34255 -1.66621,-0.50141 -0.4727,-0.14015 -0.94453,-0.28964 -1.43059,-0.37709 -0.62442,-0.11233 -1.25406,-0.19199 -1.88561,-0.25213 -0.73228,-0.078 -1.46638,-0.14896 -2.20358,-0.15138 -0.56538,-0.004 -1.1307,0.011 -1.69599,-5.3e-4 0,0 -0.33326,0.24066 -0.33326,0.24066 z"
       id="path844"
       style="stroke:currentColor;stroke-width:6.61458;stroke-miterlimit:4;stroke-dasharray:none;stroke-opacity:1" />
    <path
       d="m 122.93037,132.57887 c 0.51754,-0.381 1.02999,-0.76884 1.54549,-1.15258 0.59915,-0.43913 1.19162,-0.8872 1.78401,-1.33537 0.55012,-0.4086 1.08914,-0.83171 1.62917,-1.25345 0.46273,-0.36989 0.9417,-0.71847 1.42475,-1.06112 0.55446,-0.391 1.13567,-0.73978 1.72897,-1.06758 0.6968,-0.37962 1.40993,-0.72792 2.11789,-1.08594 0.93799,-0.46732 1.86984,-0.94624 2.79125,-1.44546 0.81578,-0.4531 1.63537,-0.89942 2.44882,-1.35669 0.8268,-0.48494 1.65608,-0.96458 2.49701,-1.42451 0.94346,-0.50227 1.87813,-1.02064 2.81022,-1.54363 0.92106,-0.51851 1.84679,-1.029 2.74892,-1.58011 0.68806,-0.43514 1.42528,-0.87551 2.04577,-1.22014 0.67411,-0.37276 1.38413,-0.67238 2.09784,-0.95935 0.87618,-0.33792 1.76508,-0.64132 2.65027,-0.95447 0.92029,-0.32985 1.84765,-0.63934 2.77217,-0.95699 0.93808,-0.3228 1.86195,-0.68442 2.78464,-1.0483 0.6997,-0.28203 1.39886,-0.56529 2.1037,-0.8343 0.80859,-0.30224 1.62529,-0.58195 2.43574,-0.87913 0.64279,-0.23075 1.26841,-0.50348 1.87779,-0.81099 0.65104,-0.34655 1.30734,-0.68285 1.96919,-1.00826 0.667,-0.32703 1.34436,-0.63224 2.0303,-0.91724 0.50504,-0.21291 1.02735,-0.37613 1.55796,-0.51073 0.40354,-0.0979 0.8133,-0.16692 1.22581,-0.21284 0.1525,-0.0197 0.30609,-0.0192 0.45925,-0.0106 0.1162,0.004 0.0313,0.009 0.23275,-0.10436 0,0 0.0946,-0.0539 0.0946,-0.0539 v 0 c 0.17437,-0.162 0.23522,-0.12745 0.12782,-0.16653 -0.15907,-0.0182 -0.32068,-0.007 -0.47917,0.0115 -0.42021,0.0503 -0.83708,0.12546 -1.24921,0.22187 -0.53311,0.13121 -1.05779,0.29148 -1.56418,0.50565 -0.69133,0.29098 -1.37537,0.59869 -2.0492,0.9284 -0.65513,0.31979 -1.30552,0.64913 -1.94926,0.99133 -0.61687,0.31671 -1.24998,0.60037 -1.90195,0.83774 -0.80656,0.2967 -1.62029,0.57301 -2.42638,0.87093 -0.70731,0.27198 -1.41143,0.55174 -2.11223,0.84016 -0.92638,0.37277 -1.85631,0.73746 -2.80036,1.06352 -0.92137,0.31657 -1.8467,0.62158 -2.76399,0.94999 -0.88779,0.31694 -1.77921,0.62413 -2.66014,0.95987 -0.71133,0.2829 -1.42189,0.57191 -2.09124,0.94639 -0.96117,0.53656 -1.90634,1.10109 -2.84013,1.6839 -0.62382,0.37891 -1.31279,0.77032 -2.00619,1.1578 -0.93125,0.5247 -1.86739,1.04047 -2.81016,1.5442 -0.83989,0.45946 -1.66833,0.93896 -2.49471,1.42203 -0.82028,0.46187 -1.64607,0.91392 -2.46795,1.37294 -0.91721,0.49706 -1.84384,0.97592 -2.77945,1.43752 -0.70862,0.35476 -1.42052,0.70365 -2.11652,1.08287 -0.83172,0.45802 -1.65468,0.93421 -2.43476,1.47676 -0.48234,0.34048 -0.95917,0.68885 -1.4181,1.06059 -0.53602,0.41919 -1.07116,0.8395 -1.6158,1.24753 -0.58106,0.44363 -1.16388,0.88494 -1.7502,1.32161 -0.51217,0.38546 -1.0226,0.77337 -1.54128,1.15006 0,0 0.33047,-0.13054 0.33047,-0.13054 z"
       id="path846"
       style="stroke:currentColor;stroke-width:6.61458;stroke-miterlimit:4;stroke-dasharray:none;stroke-opacity:1" />
    <path
       d="m 48.146324,105.8652 c 0.529542,0.009 1.057214,0.06 1.582163,0.12728 0.421995,0.0532 0.834641,0.151 1.239965,0.27778 0.399412,0.12881 0.775041,0.31668 1.144447,0.51333 0.347324,0.18965 0.687639,0.39178 1.038418,0.57506 0.295558,0.15476 0.600173,0.29017 0.908539,0.41699 0.459153,0.1788 0.934371,0.30974 1.411222,0.43126 0.526436,0.13589 1.059291,0.2447 1.592164,0.35177 0.596644,0.11586 1.192866,0.23388 1.787732,0.35857 0.67442,0.14387 1.343983,0.30915 2.016455,0.46156 0.72448,0.16581 1.447851,0.33595 2.169571,0.5134 0.808468,0.19267 1.605936,0.42485 2.390229,0.69928 0.893612,0.33377 1.766192,0.72118 2.64127,1.10018 1.074467,0.46539 2.149086,0.93114 3.237156,1.36399 0.766445,0.30622 1.54964,0.5675 2.324756,0.85039 0.907579,0.37093 1.857586,0.60717 2.810914,0.82461 0.823757,0.18454 1.650784,0.35472 2.467632,0.56841 0.790053,0.19659 1.527056,0.54188 2.264965,0.87663 0.857515,0.38601 1.712643,0.77729 2.560744,1.18361 0.978855,0.46909 1.978022,0.89363 2.973921,1.32474 0.887304,0.38142 1.760337,0.79479 2.618629,1.23741 0.876504,0.45421 1.701012,0.99932 2.528012,1.53621 1.040223,0.66687 2.074481,1.34296 3.100885,2.0309 0.767196,0.51868 1.545481,1.0204 2.331794,1.5095 0.808283,0.48908 1.598165,1.00754 2.378866,1.53929 0.614687,0.41642 1.224777,0.83933 1.826587,1.27415 0.48614,0.34536 0.92104,0.75182 1.32296,1.1906 0.34001,0.37502 0.62606,0.79302 0.9055,1.21371 0.22103,0.34842 0.4556,0.68791 0.68711,1.02937 0.19529,0.28609 0.37971,0.57938 0.55951,0.87538 0.15153,0.24857 0.11127,0.2306 0.42286,0.0898 0,0 0.0956,-0.0477 0.0956,-0.0477 v 0 c 0.30329,-0.22337 0.32032,-0.16921 0.15328,-0.43301 -0.18762,-0.29263 -0.38322,-0.57997 -0.57737,-0.86831 -0.23161,-0.34149 -0.4638,-0.68257 -0.69288,-1.02576 -0.28765,-0.42024 -0.57868,-0.8396 -0.92362,-1.21593 -0.40767,-0.44133 -0.8418,-0.85827 -1.34065,-1.19703 -0.60566,-0.43585 -1.2246,-0.853 -1.8475,-1.26375 -0.790066,-0.52013 -1.576418,-1.04655 -2.384469,-1.53862 -0.790948,-0.48844 -1.578213,-0.98299 -2.356448,-1.49149 -1.042186,-0.67149 -2.08145,-1.34751 -3.125901,-2.01548 -0.833617,-0.5353 -1.658477,-1.09135 -2.548464,-1.53065 -0.874644,-0.43741 -1.768877,-0.83388 -2.673196,-1.20597 -1.000014,-0.42056 -1.998491,-0.84539 -2.973105,-1.32279 -0.853524,-0.3964 -1.708285,-0.78993 -2.563757,-1.18212 -0.725747,-0.34206 -1.447114,-0.70724 -2.225921,-0.91532 -0.827008,-0.21697 -1.669589,-0.36494 -2.505088,-0.54495 -0.952817,-0.21319 -1.8997,-0.45172 -2.807203,-0.81851 -0.780846,-0.28393 -1.572389,-0.53732 -2.34924,-0.83241 -1.096219,-0.42074 -2.179842,-0.87274 -3.252039,-1.35151 -0.87063,-0.38617 -1.739024,-0.78025 -2.632951,-1.11038 -0.785966,-0.27866 -1.588886,-0.50323 -2.399427,-0.69897 -0.721103,-0.18129 -1.443056,-0.3591 -2.170411,-0.51392 -0.673587,-0.15714 -1.347031,-0.31533 -2.023954,-0.45756 -0.597352,-0.12535 -1.195557,-0.24709 -1.796661,-0.35324 -0.542166,-0.10196 -1.084604,-0.20328 -1.622108,-0.32807 -0.481324,-0.11541 -0.961204,-0.24066 -1.425315,-0.41451 -0.315196,-0.11857 -0.625449,-0.25012 -0.927436,-0.39942 -0.35686,-0.17953 -0.707623,-0.37049 -1.058506,-0.56138 -0.375385,-0.19547 -0.758385,-0.38159 -1.162772,-0.50968 -0.416589,-0.12334 -0.840983,-0.21799 -1.274022,-0.26156 -0.531053,-0.0612 -1.063585,-0.10963 -1.598427,-0.11951 0,0 -0.255005,0.18435 -0.255005,0.18435 z"
       id="path850"
       style="stroke:currentColor;stroke-width:6.61458;stroke-miterlimit:4;stroke-dasharray:none;stroke-opacity:1" />
    <path
       d="m 105.09217,129.27516 c 0.0855,-0.44653 0.18369,-0.89052 0.28641,-1.33336 0.0848,-0.37935 0.18565,-0.75464 0.29999,-1.12609 0.10275,-0.33496 0.22584,-0.66305 0.34837,-0.99111 0.14448,-0.37689 0.2723,-0.75982 0.40946,-1.13939 0.17861,-0.49946 0.36472,-0.99619 0.54957,-1.49336 0.18407,-0.51146 0.38256,-1.01749 0.58284,-1.52275 0.23228,-0.61918 0.50891,-1.2196 0.80162,-1.81211 0.23902,-0.47663 0.49544,-0.9441 0.76352,-1.40492 0.21578,-0.38163 0.47962,-0.73092 0.75752,-1.06871 0.2535,-0.31444 0.55095,-0.58551 0.86947,-0.83189 0.32588,-0.24218 0.66641,-0.46303 1.01602,-0.6691 -0.0602,0.0365 -0.25053,0.11723 -0.18057,0.10947 0.0827,-0.009 0.14761,-0.0769 0.22205,-0.11406 0.0675,-0.0337 0.13514,-0.0672 0.20374,-0.0986 0.20028,-0.0917 0.4054,-0.16635 0.61338,-0.23813 0.34928,-0.12109 0.71141,-0.17352 1.07887,-0.1912 0.53559,-0.0153 1.06091,0.0856 1.57451,0.22715 0.50592,0.14748 0.98045,0.37609 1.4355,0.6384 0.54548,0.33292 1.00311,0.78494 1.44642,1.23994 0.54331,0.5818 1.06302,1.18587 1.57165,1.79814 0.47983,0.5645 0.92156,1.1583 1.33092,1.77537 0.41682,0.64434 0.77008,1.32554 1.09343,2.02055 0.3135,0.69197 0.5889,1.39999 0.85424,2.1115 0.28114,0.75345 0.49169,1.5304 0.68914,2.30916 0.16651,0.66057 0.30873,1.32691 0.4329,1.99664 0.0802,0.38972 0.10159,0.78668 0.11803,1.18307 0.0135,0.37469 0.0246,0.7494 0.0298,1.1243 0.002,0.2113 0.006,0.42289 -5.3e-4,0.63414 -0.005,0.0659 -0.0146,0.12909 3e-5,0.19389 0.004,0.0143 0.012,0.0266 0.0199,0.0391 0,0 0.54795,-0.34829 0.54795,-0.34829 v 0 c 0.002,0.008 0.005,0.0132 5.3e-4,0.001 -0.0105,-0.0561 -0.003,-0.11431 -0.009,-0.17125 -0.007,-0.20712 -0.02,-0.41395 -0.0282,-0.62101 -0.0115,-0.37298 -0.0277,-0.74582 -0.0441,-1.11861 -0.0213,-0.39637 -0.0442,-0.79443 -0.13962,-1.18145 -0.14358,-0.66267 -0.3034,-1.3219 -0.47338,-1.97826 -0.20626,-0.7769 -0.41865,-1.55338 -0.71037,-2.30357 -0.26833,-0.71069 -0.56111,-1.41186 -0.87901,-2.1019 -0.32544,-0.6966 -0.66854,-1.38612 -1.10179,-2.02353 -0.405,-0.6227 -0.84364,-1.22081 -1.33295,-1.78063 -0.51917,-0.60551 -1.03721,-1.21204 -1.58047,-1.79631 -0.43875,-0.46142 -0.89433,-0.91915 -1.43336,-1.26399 -0.46283,-0.26144 -0.94802,-0.48065 -1.45646,-0.63846 -0.5137,-0.14316 -1.03726,-0.252 -1.57366,-0.24552 -0.37157,0.0111 -0.73642,0.0588 -1.08952,0.18187 -0.58424,0.20207 -1.13867,0.46454 -1.66221,0.79711 -0.35094,0.20876 -0.69468,0.42986 -1.02001,0.67714 -0.31431,0.2489 -0.60705,0.52256 -0.85666,0.83772 -0.27745,0.34138 -0.54361,0.69218 -0.75838,1.07742 -0.25811,0.45769 -0.50009,0.92395 -0.73359,1.39467 -0.28893,0.59606 -0.57289,1.19572 -0.80372,1.81721 -0.18968,0.50521 -0.38135,1.00965 -0.56732,1.51624 -0.18093,0.49403 -0.35494,0.99048 -0.5326,1.48567 -0.13905,0.38031 -0.28031,0.75979 -0.41521,1.14161 -0.12299,0.32635 -0.24221,0.65452 -0.33921,0.9897 -0.10987,0.36836 -0.20859,0.73977 -0.27656,1.11847 -0.0859,0.4396 -0.16618,0.88028 -0.2562,1.31908 0,0 0.30662,-0.14851 0.30662,-0.14851 z"
       id="path852"
       style="stroke:currentColor;stroke-width:6.61458;stroke-miterlimit:4;stroke-dasharray:none;stroke-opacity:1" />
    <path
       d="m 98.964355,158.33602 c 0.05337,-0.68106 0.242495,-1.34065 0.436022,-1.99257 0.277696,-0.90192 0.629843,-1.77798 1.001983,-2.64436 0.32326,-0.73976 0.66753,-1.47006 1.03261,-2.19004 0.37885,-0.72934 0.81254,-1.42774 1.20551,-2.1493 0.58067,-1.11559 1.07587,-2.27342 1.5867,-3.42204 0.47022,-1.07049 0.95919,-2.13223 1.45865,-3.18931 0.48767,-1.0256 0.96818,-2.0544 1.42841,-3.09264 0.40036,-0.93392 0.78427,-1.8748 1.16993,-2.81485 0.30786,-0.76492 0.64415,-1.51764 0.99527,-2.26352 0.31119,-0.663 0.63026,-1.32227 0.96588,-1.97326 0.19515,-0.37482 0.40674,-0.74096 0.63797,-1.09466 0.15985,-0.23799 0.29205,-0.49203 0.41576,-0.75014 0.23216,-0.52759 0.48249,-1.04653 0.75262,-1.55566 0.23936,-0.44526 0.49134,-0.88417 0.76355,-1.31022 0.0599,-0.15683 0.42401,-0.47232 0.0208,-0.15815 0.36436,0.3588 0.64325,0.80085 0.93095,1.2216 0.37271,0.55704 0.73513,1.12072 1.08558,1.692 0.55612,0.93967 1.03518,1.92146 1.53367,2.89205 0.7436,1.40985 1.4555,2.83581 2.12628,4.28165 0.93662,2.06483 1.9169,4.10932 2.86235,6.17006 0.91132,2.00478 1.8743,3.98513 2.84719,5.96054 1.21686,2.45698 2.57689,4.83921 3.92217,7.22717 1.18006,1.96083 2.14703,4.0432 3.35088,5.9888 0,0 0.0348,-0.0199 0.0348,-0.0199 v 0 c -0.1156,-0.28313 -0.21982,-0.57117 -0.34679,-0.84938 -0.82444,-1.80633 -1.93764,-3.46799 -2.88662,-5.20743 -1.38011,-2.36849 -2.72442,-4.75936 -3.91315,-7.23102 -0.97042,-1.97575 -1.93988,-3.95218 -2.86892,-5.94782 -0.97469,-2.04669 -1.94743,-4.09444 -2.8727,-6.16412 -0.66733,-1.44889 -1.357,-2.88576 -2.09399,-4.30077 -0.49771,-0.97224 -0.97079,-1.95751 -1.4977,-2.9144 -0.34217,-0.57722 -0.72064,-1.13137 -1.09667,-1.68692 -0.28806,-0.42689 -0.57157,-0.86068 -0.89624,-1.26055 -0.36963,0.14327 -0.29036,0.10596 -0.47718,0.41041 -0.25549,0.42647 -0.4988,0.85993 -0.73307,1.29844 -0.2695,0.51236 -0.51924,1.03353 -0.76009,1.5599 -0.12617,0.25694 -0.26191,0.50871 -0.41868,0.74853 -0.2174,0.35334 -0.42182,0.71473 -0.61006,1.08449 -0.32696,0.64873 -0.63506,1.3066 -0.94404,1.96403 -0.34993,0.74604 -0.69805,1.49332 -0.99277,2.26345 -0.37601,0.93825 -0.74718,1.87875 -1.15091,2.80555 -0.45556,1.04103 -0.93273,2.07238 -1.4314,3.09352 -0.49779,1.04798 -0.96218,2.11128 -1.42584,3.17471 -0.51618,1.15865 -1.02748,2.32171 -1.62855,3.43962 -0.39875,0.71941 -0.82949,1.42086 -1.20837,2.15122 -0.3635,0.71669 -0.70807,1.44283 -1.01792,2.18455 -0.369823,0.86955 -0.720152,1.74853 -1.007852,2.64913 -0.19825,0.66234 -0.38916,1.32947 -0.47725,2.01712 0,0 0.191169,-0.0956 0.191169,-0.0956 z"
       id="path868"
       style="stroke:currentColor;stroke-width:6.61458;stroke-miterlimit:4;stroke-dasharray:none;stroke-opacity:1" />
    <path
       d="m 106.37827,129.24041 c 0.21462,0.37395 0.43323,0.74551 0.65294,1.11651 0.14999,0.25636 0.31682,0.50189 0.48955,0.74326 0.18178,0.24319 0.36292,0.48683 0.54111,0.73269 0.20753,0.28729 0.39719,0.5868 0.58554,0.88683 0.13423,0.21588 0.27336,0.42866 0.40868,0.64383 0.0665,0.10194 0.10214,0.26763 0.24726,0.25152 0.003,0.004 0.006,0.009 0.008,0.0128 0,0 0.0956,-0.0561 0.0956,-0.0561 v 0 c -0.003,-0.004 -0.006,-0.008 -0.009,-0.0126 0.0806,-0.11632 -0.0592,-0.22695 -0.11599,-0.32784 -0.13798,-0.21369 -0.28207,-0.42331 -0.41779,-0.63848 -0.19201,-0.29838 -0.38591,-0.5957 -0.59114,-0.8852 -0.17619,-0.24736 -0.35872,-0.49 -0.54046,-0.7333 -0.17722,-0.23761 -0.34361,-0.48316 -0.50186,-0.73381 -0.23107,-0.3633 -0.44925,-0.73573 -0.64237,-1.12067 0,0 -0.21093,0.12056 -0.21093,0.12056 z"
       id="path870"
       style="stroke:currentColor;stroke-width:2.64583;stroke-miterlimit:4;stroke-dasharray:none;stroke-opacity:1" />
    <path
       d="m 117.16341,132.63221 c 0.39409,-0.31368 0.77889,-0.6386 1.1543,-0.97434 0.44463,-0.40276 0.85888,-0.83666 1.27515,-1.2681 0.39861,-0.41675 0.79465,-0.83594 1.18134,-1.26378 0.45769,-0.51162 0.90288,-1.03412 1.35921,-1.54696 0.24834,-0.27791 0.50227,-0.55073 0.75709,-0.82268 -0.0264,0.002 -0.0529,0.004 -0.0793,0.006 0,0 -0.0948,0.0397 -0.0948,0.0397 v 0 c -0.0541,0.0317 -0.10815,0.0635 -0.16222,0.0952 -0.24058,0.26476 -0.4742,0.53578 -0.7108,0.80408 -0.44762,0.51299 -0.89303,1.02792 -1.3423,1.53948 -0.38276,0.42653 -0.7771,0.84228 -1.17104,1.25848 -0.40899,0.42869 -0.81747,0.85857 -1.25572,1.25786 -0.3739,0.33582 -0.75457,0.66446 -1.15231,0.97195 0,0 0.24138,-0.0969 0.24138,-0.0969 z"
       id="path872"
       style="stroke:currentColor;stroke-width:2.64583;stroke-miterlimit:4;stroke-dasharray:none;stroke-opacity:1" />
    <path
       d="m 99.395684,157.00194 c -0.715249,0.85946 -1.276739,1.82595 -1.768221,2.82603 -0.383548,0.83476 -0.737548,1.68235 -1.122887,2.51639 -0.464322,0.97907 -0.938069,1.95361 -1.407104,2.93041 -0.413271,0.83407 -0.819153,1.67171 -1.226929,2.50846 -0.389019,0.79262 -0.732737,1.60601 -1.084455,2.41551 -0.357733,0.81795 -0.74657,1.62175 -1.140254,2.42285 -0.359098,0.73885 -0.713338,1.4796 -1.057505,2.22556 -0.484489,1.01893 -0.91581,2.06168 -1.355712,3.10029 -0.433938,1.0385 -0.898895,2.06346 -1.372134,3.0845 -0.456798,0.9789 -0.875607,1.97478 -1.299951,2.96798 -0.577392,1.35854 -1.133795,2.72557 -1.676559,4.09828 -0.516959,1.28958 -0.945099,2.61147 -1.372288,3.93265 -0.486738,1.55261 -0.857197,3.13853 -1.245457,4.71779 -0.320664,1.27792 -0.612875,2.56121 -0.816721,3.86312 -0.21299,1.48737 -0.336756,2.98591 -0.475808,4.48154 -0.134329,1.37644 -0.242896,2.7551 -0.354629,4.13348 -0.09807,1.15005 -0.142306,2.30198 -0.101074,3.45541 0.09197,1.24433 0.30769,2.47497 0.590714,3.68886 0.270545,1.13073 0.728851,2.2005 1.166993,3.27323 0.523338,1.28458 1.10209,2.54336 1.736143,3.77677 0.485714,0.95428 1.063371,1.85674 1.631074,2.76322 0.614045,1.04162 1.341281,2.00126 2.128298,2.91631 0.962498,1.04635 2.050639,1.96678 3.175082,2.83285 0.908994,0.7478 1.9344,1.30354 2.999639,1.79058 1.084778,0.49819 2.222878,0.86648 3.382849,1.14129 1.321874,0.30928 2.676212,0.42325 4.027932,0.50397 1.8492,0.10174 3.697,-0.0127 5.53985,-0.1602 2.12604,-0.18528 4.21186,-0.63061 6.27293,-1.16783 2.52442,-0.73841 4.93574,-1.80873 7.35103,-2.83874 2.39364,-0.93503 4.63619,-2.16704 6.85285,-3.45407 1.70053,-0.98292 3.20029,-2.24025 4.56212,-3.64611 1.41299,-1.56913 2.44453,-3.41388 3.28543,-5.3377 0.82331,-1.82165 1.18864,-3.76874 1.43252,-5.73795 0.24051,-2.31072 0.27646,-4.63697 0.2284,-6.9578 -0.0718,-2.0746 -0.24881,-4.14329 -0.40899,-6.21234 -0.22012,-2.82869 -0.39621,-5.66061 -0.56761,-8.49261 -0.11076,-2.14996 -0.28879,-4.2943 -0.53086,-6.43312 -0.2295,-1.82534 -0.62735,-3.62123 -1.04208,-5.41141 -0.4084,-1.82961 -0.86895,-3.64528 -1.36021,-5.45414 -0.43093,-1.66687 -0.85332,-3.33549 -1.3093,-4.99574 -0.45448,-1.68425 -0.9108,-3.36792 -1.38204,-5.04756 -0.38904,-1.44703 -0.85596,-2.87083 -1.32136,-4.29454 -0.66498,-2.01051 -1.36214,-4.0097 -2.09359,-5.99694 -0.59469,-1.62382 -1.25939,-3.22259 -2.03824,-4.7668 -0.75265,-1.48243 -1.62451,-2.89916 -2.45995,-4.33532 -0.83287,-1.45341 -1.69935,-2.88705 -2.55116,-4.3293 -0.60358,-1.02138 -1.22731,-2.03067 -1.83726,-3.04822 -0.46242,-0.73278 -0.88245,-1.49046 -1.31468,-2.24098 -0.11255,-0.19543 -0.19729,-0.41097 -0.3427,-0.58335 -0.13992,-0.16587 -0.3337,-0.27752 -0.50054,-0.41629 -0.24393,-0.0483 -0.48786,-0.0967 -0.7318,-0.14503 0,0 -0.20255,0.11796 -0.20255,0.11796 v 0 c -0.07,0.22838 -0.13993,0.45675 -0.20989,0.68513 0.0306,0.2169 0.0248,0.44213 0.0917,0.6507 0.0691,0.2153 0.20411,0.40358 0.31053,0.60307 0.40864,0.76605 0.8419,1.51955 1.28434,2.26643 0.62252,1.00998 1.22765,2.03064 1.85617,3.03686 0.88256,1.42259 1.74036,2.86033 2.58112,4.308 0.8302,1.43513 1.66166,2.87023 2.44191,4.33336 0.77321,1.53543 1.49477,3.09726 2.12412,4.69775 0.77783,1.96274 1.49993,3.94612 2.15937,5.95198 0.47607,1.41418 0.94674,2.83056 1.36526,4.2631 0.49153,1.66764 0.99199,3.33283 1.44215,5.01233 0.448,1.6592 0.87583,3.32384 1.34142,4.97826 0.4915,1.80209 0.9893,3.6031 1.39925,5.42605 0.39905,1.79009 0.78582,3.58646 1.01895,5.40705 0.27615,2.11905 0.46352,4.24771 0.61843,6.37888 0.2068,2.83108 0.37597,5.6646 0.56052,8.4972 0.14111,2.07237 0.27502,4.14552 0.38019,6.22002 0.0726,2.30686 0.0777,4.61998 -0.19245,6.91627 -0.26301,1.9568 -0.65577,3.89029 -1.45744,5.70756 -0.84201,1.90566 -1.85294,3.74395 -3.27914,5.28279 -1.3716,1.388 -2.87156,2.63337 -4.56817,3.61109 0.0943,-0.0513 0.37731,-0.20501 0.28295,-0.15381 -1.25073,0.6786 -2.51974,1.30563 -3.82033,1.88383 -0.37724,0.16771 -0.7568,0.33014 -1.13521,0.49521 -2.40504,1.03056 -4.80699,2.09834 -7.32126,2.83855 -2.05805,0.54766 -4.14096,1.00696 -6.2674,1.1909 -1.83526,0.15779 -3.67789,0.27522 -5.52017,0.16804 -1.34467,-0.0842 -2.691613,-0.19761 -4.009719,-0.49061 -1.158166,-0.27195 -2.293747,-0.62776 -3.382441,-1.112 -1.062821,-0.4822 -2.090762,-1.0291 -3.016557,-1.74722 -1.132803,-0.84861 -2.236968,-1.74404 -3.194294,-2.79157 -0.782349,-0.91087 -1.492686,-1.87567 -2.105612,-2.9098 -0.573924,-0.89892 -1.161841,-1.79104 -1.667589,-2.73096 -0.645655,-1.22278 -1.234882,-2.47326 -1.758617,-3.75347 -0.457372,-1.05656 -0.914403,-2.11727 -1.19453,-3.23796 -0.296498,-1.20179 -0.523867,-2.42539 -0.594281,-3.66311 -0.04027,-1.14557 0.0019,-2.29026 0.08292,-3.43353 0.09146,-1.37251 0.20868,-2.74341 0.320559,-4.11434 0.139782,-1.50029 0.270714,-3.00234 0.509791,-4.49106 0.208674,-1.2875 0.46182,-2.56617 0.772604,-3.83339 0.362099,-1.57587 0.721644,-3.15568 1.21728,-4.6961 0.425166,-1.31676 0.864396,-2.6298 1.360884,-3.92166 0.512739,-1.36478 1.040138,-2.72476 1.613093,-4.06549 0.425164,-0.9936 0.859652,-1.9832 1.305375,-2.96777 0.467156,-1.01369 0.91227,-2.03713 1.334772,-3.07031 0.442463,-1.04331 0.89408,-2.08264 1.378234,-3.1074 0.349157,-0.74124 0.68798,-1.48739 1.051427,-2.22182 0.372179,-0.79666 0.74181,-1.59462 1.089083,-2.40255 0.356402,-0.8104 0.713367,-1.62071 1.097754,-2.41835 0.399023,-0.83406 0.81026,-1.66225 1.204711,-2.49851 0.471099,-0.97835 0.941994,-1.95676 1.414032,-2.93465 0.387728,-0.82846 0.733901,-1.67454 1.109149,-2.50863 0.484124,-1.00206 1.047271,-1.96724 1.781512,-2.80981 0,0 -0.697699,0.29427 -0.697699,0.29427 z"
       id="path874"
       style="stroke:currentColor;stroke-width:6.61458;stroke-miterlimit:4;stroke-dasharray:none;stroke-opacity:1" />
    <path
       d="m 94.0514,198.95818 c -0.413702,0.87751 -0.803382,1.76427 -1.134403,2.6763 -0.303385,0.85723 -0.531775,1.73805 -0.761821,2.61699 -0.170042,0.61318 -0.332644,1.22809 -0.47463,1.84836 -0.144962,0.60298 -0.181776,1.22087 -0.204818,1.83803 -0.02006,0.54348 0.0022,1.08704 0.04144,1.62906 0.05351,0.65028 0.15834,1.29417 0.267055,1.93698 0.116284,0.64996 0.223682,1.30129 0.315023,1.95523 0.06928,0.60382 0.11452,1.21024 0.169221,1.8156 0.04889,0.54617 0.09781,1.09218 0.175831,1.63502 0.08927,0.54697 0.2273,1.0848 0.385371,1.61552 0.165704,0.55327 0.363527,1.09618 0.623802,1.61199 0.232547,0.4743 0.592604,0.85816 0.972091,1.21742 0.533137,0.46784 1.072679,0.92853 1.611152,1.39027 0.458133,0.39082 0.920722,0.77654 1.406419,1.13277 0.49196,0.35747 0.99849,0.69429 1.50369,1.03259 0.42175,0.29707 0.85231,0.57652 1.309067,0.81648 0.45268,0.23668 0.92616,0.42963 1.39456,0.63233 0.51259,0.22109 1.03172,0.42646 1.56251,0.59958 0.53162,0.16303 1.08455,0.22113 1.63732,0.25044 0.80171,0.025 1.60357,-0.0281 2.40361,-0.0749 0.79759,-0.0366 1.59174,-0.1051 2.38282,-0.21239 0.96155,-0.13048 1.90453,-0.3573 2.8413,-0.6053 0.62138,-0.15915 1.22886,-0.36564 1.81754,-0.61966 0.56358,-0.25357 1.10586,-0.55114 1.65521,-0.8336 0.87505,-0.46884 1.74268,-0.95466 2.5756,-1.49546 0.47598,-0.30304 0.92224,-0.64906 1.36648,-0.9961 0.65573,-0.51418 1.2965,-1.04685 1.91113,-1.60953 0.68451,-0.62216 1.3496,-1.2649 1.98792,-1.9343 0.55738,-0.60561 1.04777,-1.26859 1.52461,-1.93822 0.36594,-0.52906 0.6982,-1.08075 0.98831,-1.65473 0.36455,-0.74735 0.63554,-1.5338 0.85852,-2.33338 0.22837,-0.95041 0.36865,-1.91944 0.48887,-2.88862 0.10347,-0.80694 0.12727,-1.61935 0.11965,-2.43177 -0.008,-0.96892 -0.10543,-1.93287 -0.21799,-2.89413 -0.0971,-0.82633 -0.29198,-1.63602 -0.51233,-2.43684 -0.23862,-0.84648 -0.55223,-1.66554 -0.9294,-2.45904 -0.24623,-0.52188 -0.55689,-1.00966 -0.90235,-1.4707 -0.30605,-0.42979 -0.68294,-0.79432 -1.0788,-1.13963 -0.53044,-0.44087 -1.07486,-0.86493 -1.62544,-1.28029 -0.43189,-0.33107 -0.89698,-0.60983 -1.37938,-0.85948 -0.50756,-0.24658 -1.01951,-0.48416 -1.54455,-0.69118 -0.52096,-0.22298 -1.07179,-0.35277 -1.62546,-0.46286 -0.65752,-0.12584 -1.31843,-0.23326 -1.98501,-0.29642 -0.54065,-0.0514 -1.0839,-0.0615 -1.62661,-0.0634 -0.75679,0.0128 -1.51343,0.003 -2.27012,-0.009 -0.73737,-0.0203 -1.47437,-0.0478 -2.21206,-0.0508 -0.92355,-0.006 -1.84379,0.0513 -2.76199,0.14521 -0.7906,0.0873 -1.57685,0.20806 -2.36147,0.33751 -0.66407,0.10596 -1.32103,0.24911 -1.977,0.39587 -0.6067,0.12853 -1.20674,0.2838 -1.80101,0.46059 -0.44872,0.13468 -0.89936,0.26381 -1.340717,0.4213 -0.48858,0.18017 -0.95738,0.40879 -1.42147,0.64373 -0.834912,0.44729 -1.687561,0.87478 -2.454542,1.43313 -0.308567,0.22259 -0.590318,0.4786 -0.866981,0.73892 -0.331389,0.32381 -0.656514,0.65398 -0.96888,0.99618 -0.177239,0.20023 -0.356227,0.39879 -0.505998,0.62076 -0.158987,0.25286 -0.310439,0.51095 -0.460031,0.7696 -0.106678,0.18694 -0.213132,0.3749 -0.304347,0.56998 -0.107695,0.26486 -0.214176,0.53026 -0.317472,0.79688 -0.08346,0.25648 -0.17851,0.50934 -0.253942,0.76835 -0.0696,0.28975 -0.158296,0.57215 -0.257007,0.85321 -0.115588,0.30681 -0.233585,0.61291 -0.363571,0.91396 -0.07509,0.17971 -0.116516,0.36907 -0.153258,0.55945 -0.02978,0.22507 -0.04231,0.45055 -0.03671,0.67716 -0.0024,0.45249 0.152128,0.19787 0.709258,-0.0312 0,0 0.236878,-0.13827 0.236878,-0.13827 v 0 c 0.462885,-0.28413 0.658827,-0.22091 0.622286,-0.63387 -0.0036,-0.21512 0.01419,-0.43057 0.05503,-0.64194 0.04025,-0.18103 0.09636,-0.35821 0.166709,-0.52988 0.117737,-0.30449 0.235457,-0.609 0.346903,-0.91586 0.100627,-0.28475 0.185313,-0.57305 0.263316,-0.86466 0.08035,-0.25352 0.160334,-0.50748 0.256621,-0.75551 0.102467,-0.26763 0.217047,-0.5304 0.338627,-0.78989 0.09589,-0.18832 0.197054,-0.37396 0.304307,-0.55607 0.148728,-0.25604 0.295677,-0.5143 0.469352,-0.7545 0.159956,-0.20752 0.333923,-0.40344 0.507962,-0.59918 0.312557,-0.34014 0.637254,-0.6697 0.976501,-0.98327 0.282237,-0.25529 0.569814,-0.50548 0.884618,-0.72051 0.515911,-0.3481 1.384581,-0.82363 -1.097029,0.61102 -0.05125,0.0296 0.103549,-0.0574 0.155332,-0.0861 0.234882,-0.12968 0.113781,-0.0632 0.363371,-0.19911 0.457322,-0.2401 0.921687,-0.46885 1.402737,-0.65796 0.44095,-0.16242 0.891,-0.29677 1.34023,-0.43425 0.593797,-0.17571 1.189497,-0.34392 1.795847,-0.47193 0.65133,-0.14526 1.30357,-0.2869 1.96206,-0.39648 0.78946,-0.1346 1.5789,-0.27086 2.37506,-0.361 0.90429,-0.0996 1.81191,-0.15584 2.72222,-0.14038 0.73803,0.004 1.4753,0.0306 2.21313,0.0469 0.75242,0.0162 1.50484,0.0318 2.25749,0.0214 0.54133,0.002 1.08295,0.009 1.6232,0.047 0.66357,0.0562 1.32421,0.14327 1.97669,0.27853 0.5476,0.11048 1.09477,0.23168 1.61809,0.43128 0.52852,0.19763 1.04731,0.41866 1.55638,0.66242 0.48763,0.23715 0.9618,0.49852 1.40858,0.80722 0.56598,0.39433 1.12052,0.80465 1.64901,1.24862 0.39369,0.33606 0.77642,0.68764 1.11639,1.07892 0.35621,0.44066 0.67676,0.90877 0.93784,1.4128 0.39207,0.77198 0.73377,1.56818 0.98012,2.39979 0.2299,0.7852 0.43977,1.57709 0.55841,2.38801 0.13435,0.94836 0.25175,1.90153 0.24497,2.86132 0.005,0.80086 -0.0113,1.60203 -0.0921,2.39951 -0.0996,0.95126 -0.20381,1.90459 -0.42481,2.83702 -0.19219,0.78182 -0.43696,1.55117 -0.79369,2.27535 -0.28217,0.56235 -0.59602,1.10791 -0.9586,1.6229 -0.46714,0.66448 -0.94828,1.32159 -1.50708,1.9132 -0.63378,0.66586 -1.29422,1.30539 -1.97704,1.92098 -0.62333,0.55614 -1.26214,1.09446 -1.92326,1.60541 -0.45007,0.3442 -0.90153,0.68751 -1.3802,0.99161 -0.29235,0.18833 -1.19845,0.70797 0.18052,-0.0747 0.94472,-0.53615 -1.78583,1.0572 -0.88136,0.4907 -0.54637,0.28289 -1.08823,0.57557 -1.64616,0.83524 -0.59435,0.2639 -1.20599,0.48668 -1.83506,0.65367 -0.93716,0.25684 -1.88131,0.49218 -2.84532,0.6252 -0.78996,0.10726 -1.58263,0.17611 -2.37872,0.21876 -0.79824,0.0529 -1.59788,0.11475 -2.39851,0.0858 -0.54615,-0.0277 -1.09078,-0.083 -1.61931,-0.23133 -0.53783,-0.15947 -1.06316,-0.35525 -1.57899,-0.57572 -0.46788,-0.19827 -0.93157,-0.40682 -1.3895,-0.62718 -0.461,-0.23131 -0.89847,-0.50361 -1.325057,-0.79325 -0.512,-0.33107 -1.0214,-0.66609 -1.52069,-1.01618 -0.48974,-0.35497 -0.977896,-0.71183 -1.437896,-1.10541 -0.548978,-0.44933 -1.09712,-0.90036 -1.624593,-1.37496 -0.369283,-0.35516 -0.731434,-0.72414 -0.97368,-1.18142 -0.262348,-0.50714 -0.478464,-1.03471 -0.64695,-1.58084 -0.155898,-0.52516 -0.313509,-1.05203 -0.400874,-1.59387 -0.08437,-0.53638 -0.161654,-1.07329 -0.204653,-1.61491 -0.06027,-0.60203 -0.110423,-1.20555 -0.202113,-1.80392 -0.116592,-0.64332 -0.258944,-1.28174 -0.373651,-1.92546 -0.118394,-0.63838 -0.221312,-1.28063 -0.268324,-1.92875 -0.04517,-0.53654 -0.06528,-1.07423 -0.05731,-1.6128 0.01213,-0.61066 0.04729,-1.2217 0.191961,-1.81776 0.131573,-0.60805 0.286911,-1.21075 0.417289,-1.81913 0.201963,-0.85973 0.379339,-1.72711 0.663508,-2.56492 0.310752,-0.91117 0.670275,-1.80472 1.112298,-2.66109 0,0 -0.403155,0.18363 -0.403155,0.18363 z"
       id="path876"
       style="stroke:currentColor;stroke-width:5.29167;stroke-miterlimit:4;stroke-dasharray:none;stroke-opacity:1" />
    <path
       d="m 99.533569,157.48994 c 0.954931,-0.2563 1.913031,-0.501 2.856021,-0.79904 0.73802,-0.23543 1.44577,-0.55074 2.14634,-0.8786 0.64818,-0.30284 1.28514,-0.62853 1.91039,-0.97608 1.11307,-0.61087 2.19119,-1.27928 3.23712,-1.99794 0.96763,-0.69218 1.88703,-1.44784 2.76979,-2.24462 0.79252,-0.68165 1.39805,-1.51049 1.93478,-2.39858 0.53308,-0.9137 1.01286,-1.85677 1.47523,-2.80772 0.32516,-0.69479 0.64131,-1.3938 0.96086,-2.09123 0.31951,-0.71244 0.65139,-1.41946 0.95927,-2.13705 0.11423,-0.28783 0.23953,-0.57515 0.31173,-0.87741 -0.008,-0.009 -0.0163,-0.0178 -0.0245,-0.0267 -0.0406,0.0112 -0.0811,0.0223 -0.12173,0.0335 0,0 -0.96519,0.46897 -0.96519,0.46897 v 0 c -0.15116,0.0975 -0.0996,0.0437 -0.17444,0.14008 -0.0746,0.28291 -0.15657,0.56353 -0.27003,0.83405 -0.29793,0.71539 -0.61999,1.42066 -0.94302,2.12499 -0.32039,0.69471 -0.63245,1.39321 -0.95582,2.08656 -0.44595,0.94484 -0.90578,1.88468 -1.44673,2.77971 -0.54323,0.86641 -1.15215,1.67814 -1.92669,2.35531 -0.85388,0.77468 -1.74252,1.51084 -2.67493,2.18971 -0.50247,0.35432 -1.01126,0.69348 -1.53545,1.01486 -0.12082,0.0741 -0.49065,0.28287 -0.36309,0.22116 0.18977,-0.0918 0.36683,-0.2078 0.55025,-0.3117 -0.65668,0.37125 -1.31892,0.73212 -2.00022,1.05675 -0.73596,0.35064 -1.47136,0.70844 -2.24524,0.96947 -0.96261,0.32917 -1.94134,0.60859 -2.92715,0.85966 0,0 -0.537565,0.41192 -0.537565,0.41192 z"
       id="path878"
       style="stroke:currentColor;stroke-width:3.175;stroke-miterlimit:4;stroke-dasharray:none;stroke-opacity:1" />
    <path
       d="m 92.469696,175.68467 c 1.57131,-0.36929 3.113265,-0.84009 4.640162,-1.36068 1.555261,-0.55442 3.084962,-1.17678 4.613512,-1.80011 1.17345,-0.47553 2.34453,-0.95687 3.51725,-1.4342 1.2429,-0.5048 2.49905,-0.97558 3.75,-1.45973 1.08669,-0.40542 2.14768,-0.86879 3.15854,-1.43739 1.94882,-1.06144 3.74061,-2.36532 5.46688,-3.75109 0.97288,-0.77582 1.87012,-1.63781 2.71596,-2.54875 0.75534,-0.8376 1.4511,-1.72674 2.12426,-2.63101 0.74271,-0.96994 1.24248,-2.0821 1.73162,-3.19264 0.31281,-0.69818 0.56918,-1.41786 0.80077,-2.1462 0.0799,-0.28766 0.13807,-0.58061 0.20826,-0.87071 0.1013,-0.38284 -0.533,0.10374 -0.68829,0.17001 0,0 -0.24613,0.19931 -0.24613,0.19931 v 0 c -0.30305,0.12621 -0.65172,0.10206 -0.70546,0.4219 -0.0562,0.28324 -0.11313,0.56689 -0.18818,0.84581 -0.20465,0.71586 -0.46055,1.41569 -0.75196,2.10081 -0.47119,1.09836 -0.98853,2.17972 -1.70962,3.14025 -0.6613,0.89571 -1.35218,1.77099 -2.0967,2.59942 -0.82287,0.8891 -1.69694,1.72983 -2.6395,2.49242 -0.65668,0.53327 -1.3174,1.05828 -2.0047,1.55208 -0.23579,0.16941 -0.47467,0.33454 -0.71438,0.49836 -0.24046,0.16433 -0.5393,0.26258 -0.72606,0.48606 -0.13344,0.15966 0.37092,-0.18869 0.55639,-0.28303 -1.03553,0.60412 -2.12344,1.10207 -3.24316,1.53122 -1.27996,0.5047 -2.56397,0.9994 -3.83588,1.52427 -1.19695,0.49935 -2.39546,0.99495 -3.59276,1.49345 -1.57534,0.6626 -3.152691,1.32219 -4.754759,1.91807 -1.580356,0.57108 -3.175677,1.10567 -4.810302,1.50163 0,0 -0.575763,0.44047 -0.575763,0.44047 z"
       id="path880"
       style="stroke:currentColor;stroke-width:3.175;stroke-miterlimit:4;stroke-dasharray:none;stroke-opacity:1" />
    <path
       d="m 86.393958,191.43214 c 1.405107,-0.4375 2.841943,-0.76062 4.278315,-1.07583 1.502114,-0.30724 3.001558,-0.62169 4.493554,-0.9752 1.936083,-0.45758 3.844626,-1.02086 5.746453,-1.60221 1.38941,-0.44052 2.78574,-0.85867 4.17586,-1.29689 2.13613,-0.64926 4.18585,-1.52455 6.19564,-2.48899 2.59523,-1.29609 5.08295,-2.79119 7.38538,-4.55576 1.69628,-1.37581 3.2677,-2.89616 4.8324,-4.41737 1.12068,-1.09161 2.17917,-2.24408 3.19473,-3.43341 0.68662,-0.82156 1.36609,-1.64903 1.99392,-2.51664 0.47012,-0.70681 0.85242,-1.46698 1.22885,-2.22639 0.21211,-0.41258 0.40755,-0.83452 0.63522,-1.23891 0.12363,-0.22769 0.17998,-0.21648 -0.23553,0.002 0,0 -1.17253,0.47701 -1.17253,0.47701 v 0 c -0.25636,0.13834 -0.34261,0.11945 -0.41649,0.34931 -0.16125,0.40307 -0.33859,0.79975 -0.52963,1.18959 -0.36464,0.74516 -0.73646,1.49009 -1.19944,2.18033 -0.59659,0.84912 -1.23278,1.66906 -1.90323,2.46135 -0.98471,1.16715 -2.01123,2.29852 -3.09498,3.37496 -1.53481,1.51532 -3.0882,3.01738 -4.76974,4.37129 -1.86763,1.43427 -2.83925,2.11292 -4.86284,3.11638 -2.01505,0.97857 -4.06906,1.86978 -6.21419,2.52773 -1.42311,0.46659 -2.85179,0.91591 -4.27687,1.37641 -1.938738,0.62075 -3.88791,1.21185 -5.864213,1.70256 -1.548318,0.37495 -3.100483,0.73339 -4.65147,1.09688 -1.472425,0.34841 -2.941196,0.71439 -4.389768,1.15313 0,0 -0.579401,0.44872 -0.579401,0.44872 z"
       id="path882"
       style="stroke:currentColor;stroke-width:3.175;stroke-miterlimit:4;stroke-dasharray:none;stroke-opacity:1" />
    <path
       d="m 175.76257,99.989263 c 1.10171,0.553077 2.23651,1.026287 3.38496,1.472157 1.36342,0.50683 2.773,0.87603 4.18149,1.23329 1.07134,0.2653 2.14423,0.52402 3.21333,0.79823 0.6002,0.14702 1.18968,0.3319 1.77391,0.53211 0.26882,0.0897 0.52821,0.20438 0.79619,0.29598 0.1648,0.079 0.25296,-0.0486 0.39991,-0.13666 0,0 0.26079,-0.18582 0.26079,-0.18582 v 0 c 0.13063,-0.10224 0.3417,-0.1783 0.10792,-0.20328 -0.28377,-0.0693 -0.55475,-0.18183 -0.83416,-0.26579 -0.59668,-0.19544 -1.19859,-0.37582 -1.81111,-0.51534 -1.0902,-0.25482 -2.18468,-0.49144 -3.27232,-0.75736 -1.43704,-0.3444 -2.87236,-0.69814 -4.27799,-1.15776 -1.16763,-0.41279 -2.33118,-0.85444 -3.42672,-1.436255 0,0 -0.4962,0.326498 -0.4962,0.326498 z"
       id="path943"
       style="fill:#ffffff;stroke:currentColor;stroke-width:8.28146;stroke-miterlimit:4;stroke-dasharray:none;stroke-opacity:1" />
    <path
       d="m 44.819781,101.87592 c -1.385287,0.73832 -2.786314,1.44325 -4.22135,2.07972 -1.196906,0.53546 -2.47273,0.83582 -3.742111,1.13984 -1.572209,0.36364 -3.131375,0.78026 -4.690472,1.19575 -1.349089,0.348 -2.670707,0.78941 -3.992203,1.22802 -1.530202,0.54259 -3.110072,0.91828 -4.70572,1.20625 -0.907365,0.15626 -1.82305,0.24518 -2.742384,0.28209 -0.414361,0.0102 -0.825422,-0.0409 -1.235411,-0.0928 -0.277277,-0.0388 -0.55398,-0.0735 -0.833655,-0.0868 -0.209024,-0.0183 -0.389369,0.0992 -0.56813,0.18936 0,0 -0.263155,0.16717 -0.263155,0.16717 v 0 c -0.08951,0.10883 -0.276123,0.26588 -0.03539,0.26783 0.281992,0.009 0.563094,0.0295 0.842619,0.0693 0.427188,0.0541 0.858027,0.10103 1.289188,0.0754 0.943768,-0.0434 1.882332,-0.15683 2.813132,-0.31829 1.598948,-0.29558 3.184384,-0.667 4.72196,-1.20244 1.344105,-0.45052 2.690622,-0.89443 4.054544,-1.282 1.564478,-0.44492 3.136529,-0.86415 4.722889,-1.22448 1.278311,-0.29269 2.557579,-0.59417 3.759488,-1.13476 1.442197,-0.64492 2.848938,-1.36042 4.24688,-2.09587 0,0 0.579279,-0.46323 0.579279,-0.46323 z"
       id="path945"
       style="fill:#ffffff;stroke:currentColor;stroke-width:8.28146;stroke-miterlimit:4;stroke-dasharray:none;stroke-opacity:1" />
  </g>
</svg>
