<?xml version="1.0" encoding="UTF-8" standalone="no"?>
<svg
   xmlns:dc="http://purl.org/dc/elements/1.1/"
   xmlns:cc="http://creativecommons.org/ns#"
   xmlns:rdf="http://www.w3.org/1999/02/22-rdf-syntax-ns#"
   xmlns:svg="http://www.w3.org/2000/svg"
   xmlns="http://www.w3.org/2000/svg"
   xmlns:xlink="http://www.w3.org/1999/xlink"
   xmlns:sodipodi="http://sodipodi.sourceforge.net/DTD/sodipodi-0.dtd"
   xmlns:inkscape="http://www.inkscape.org/namespaces/inkscape"
   width="147.8299mm"
   height="154.50784mm"
   viewBox="0 0 147.8299 154.50784"
   version="1.1"
   id="svg8"
   sodipodi:docname="log-resized.svg"
   inkscape:version="1.0.1 (3bc2e813f5, 2020-09-07)">
  <defs
     id="defs2" />
  <sodipodi:namedview
     id="base"
     pagecolor="#ffffff"
     bordercolor="#666666"
     borderopacity="1.0"
     inkscape:pageopacity="0.0"
     inkscape:pageshadow="2"
     inkscape:zoom="0.7"
     inkscape:cx="85.749018"
     inkscape:cy="221.95933"
     inkscape:document-units="mm"
     inkscape:current-layer="layer4"
     inkscape:document-rotation="0"
     showgrid="false"
     inkscape:window-width="1920"
     inkscape:window-height="1017"
     inkscape:window-x="-8"
     inkscape:window-y="-8"
     inkscape:window-maximized="1"
     fit-margin-top="0"
     fit-margin-left="0"
     fit-margin-right="0"
     fit-margin-bottom="0" />
  <metadata
     id="metadata5">
    <rdf:RDF>
      <cc:Work
         rdf:about="">
        <dc:format>image/svg+xml</dc:format>
        <dc:type
           rdf:resource="http://purl.org/dc/dcmitype/StillImage" />
        <dc:title></dc:title>
      </cc:Work>
    </rdf:RDF>
  </metadata>
  <g
     inkscape:label="image"
     inkscape:groupmode="layer"
     id="layer1"
     style="display:none;opacity:0.4"
     transform="translate(-32.724614,-74.576821)">
    <image
       sodipodi:absref="C:\Users\Zdravko\Google Drive\clients\Boni\logo.tif"
       xlink:href="logo.tif"
       width="277.74124"
       height="172.35713"
       preserveAspectRatio="none"
       id="image21"
       x="-17.235712"
       y="69.547623" />
    <path
       style="fill:none;stroke:currentColor;stroke-width:0.265;stroke-linecap:butt;stroke-linejoin:miter;stroke-miterlimit:4;stroke-dasharray:none;stroke-opacity:1"
       d="m 171.77126,138.5844 c -0.021,-0.0918 -0.0206,-0.19135 -0.063,-0.27549 -0.0623,-0.12367 -0.24592,-0.13477 -0.38086,-0.16578 -0.87714,-0.20156 -1.75548,0.096 -2.49419,0.55585 -2.40714,1.49851 -0.87795,4.57702 1.80693,3.68615 0.89993,-0.2986 1.75847,-1.182 2.11047,-2.0503 0.22349,-0.55128 0.0538,-1.1122 -0.37513,-1.50908 -0.0641,-0.0593 -0.2147,-0.21647 -0.29781,-0.23404 -0.2107,-0.0445 -0.49699,0.0213 -0.69586,0.0512"
       id="path884" />
    <path
       style="fill:none;stroke:currentColor;stroke-width:3;stroke-linecap:butt;stroke-linejoin:miter;stroke-miterlimit:4;stroke-dasharray:none;stroke-opacity:1"
       d="m 173.46937,138.36498 c -0.14972,-0.36361 -0.49279,-0.67818 -0.84476,-0.86546 -1.48222,-0.78869 -3.69851,0.13447 -4.17513,1.73824 -0.10604,0.35683 -0.13779,0.75174 0.16895,1.01906 0.44168,0.3849 1.09007,0.48977 1.66089,0.46564 1.05396,-0.0446 3.6142,-0.88634 3.19005,-2.35748 z"
       id="path886" />
  </g>
  <g
     inkscape:groupmode="layer"
     id="layer5"
     inkscape:label="background"
     transform="translate(-32.724614,-74.576821)" />
  <g
     inkscape:groupmode="layer"
     id="layer2"
     inkscape:label="palm"
     transform="translate(-32.724614,-74.576821)" />
  <g
     inkscape:groupmode="layer"
     id="layer3"
     inkscape:label="map"
     transform="translate(-32.724614,-74.576821)" />
  <g
     inkscape:groupmode="layer"
     id="layer4"
     inkscape:label="pins"
     transform="translate(-32.724614,-74.576821)">
    <g
       id="g924">
      <g
         id="g869"
         style="stroke-width:3;stroke-miterlimit:4;stroke-dasharray:none">
        <path
           style="fill:none;stroke:currentColor;stroke-width:3;stroke-linecap:butt;stroke-linejoin:miter;stroke-miterlimit:4;stroke-dasharray:none;stroke-opacity:1"
           d="m 70.69279,166.5649 c -23.175182,9.31431 -23.370281,48.40348 -0.538359,59.3685 2.980598,1.43143 6.824697,0.6595 9.9997,1.17996"
           id="path850" />
        <path
           style="fill:none;stroke:currentColor;stroke-width:3;stroke-linecap:butt;stroke-linejoin:miter;stroke-miterlimit:4;stroke-dasharray:none;stroke-opacity:1"
           d="m 70.69279,166.5649 c 9.008112,-2.46309 14.256149,-13.42994 12.599849,-21.4343"
           id="path854" />
        <path
           style="fill:none;stroke:currentColor;stroke-width:3;stroke-linecap:butt;stroke-linejoin:miter;stroke-miterlimit:4;stroke-dasharray:none;stroke-opacity:1"
           d="m 83.292637,145.1306 c -2.693003,-8.72218 -10.090018,-25.44039 8.407537,-27.45111 14.215146,2.7843 37.269436,0.45828 46.355996,15.26146"
           id="path856" />
        <path
           style="fill:none;stroke:currentColor;stroke-width:3;stroke-linecap:butt;stroke-linejoin:miter;stroke-miterlimit:4;stroke-dasharray:none;stroke-opacity:1"
           d="m 145.22662,182.06039 c 3.94575,-18.60476 5.39375,-35.7992 -7.17045,-49.11944"
           id="path858" />
        <path
           style="fill:none;stroke:currentColor;stroke-width:3;stroke-linecap:butt;stroke-linejoin:miter;stroke-miterlimit:4;stroke-dasharray:none;stroke-opacity:1"
           d="m 80.154131,227.11336 c 26.262319,2.60369 50.221319,-5.21544 59.746189,-33.20462 1.30037,-3.82119 5.01797,-9.60516 5.3263,-11.84835"
           id="path860" />
      </g>
      <path
         style="fill:none;stroke:currentColor;stroke-width:3;stroke-linecap:butt;stroke-linejoin:miter;stroke-miterlimit:4;stroke-dasharray:none;stroke-opacity:1"
         d="m 83.292637,145.1306 c 10.105443,-3.30753 19.756963,1.1413 28.933833,5.3732 3.19754,1.47454 6.44359,3.01252 9.63316,4.54431 0.64661,0.31053 2.3922,0.0228 2.05034,0.65336 -1.06566,1.96571 -8.38944,7.13716 -8.48772,7.24554 0.032,0.32548 13.44605,8.3923 12.54258,8.7473 -3.75651,1.47605 -11.50918,-3.88566 -10.96187,-2.30141 0.77842,2.25319 4.74544,2.30873 5.77302,4.58331 1.94654,4.30867 -17.17026,3.46234 -19.93067,7.10901 -3.307863,4.3699 3.89399,1.9952 5.28049,4.44678 1.17117,2.07087 -1.34922,5.38228 0.11454,7.51859 0.86978,1.2694 6.18748,2.84081 5.01703,5.20742 -3.11311,6.29457 -20.938121,11.88507 -24.913337,28.8066"
         id="path872" />
      <path
         style="fill:none;stroke:currentColor;stroke-width:3;stroke-linecap:butt;stroke-linejoin:miter;stroke-miterlimit:4;stroke-dasharray:none;stroke-opacity:1"
         d="m 91.700172,117.67949 c 4.698814,9.19918 7.413955,4.22092 11.591868,6.59217 1.1409,0.64754 -3.29534,3.55198 -1.99307,3.3936 5.57427,-0.67795 11.14992,0.84647 16.84943,1.45301 1.37098,0.14589 -0.62051,4.14459 0.75599,4.06647 5.02799,-0.28537 10.02529,-4.4212 15.03964,-4.66133"
         id="path874" />
      <path
         style="fill:none;stroke:currentColor;stroke-width:3;stroke-linecap:butt;stroke-linejoin:miter;stroke-miterlimit:4;stroke-dasharray:none;stroke-opacity:1"
         d="m 146.8646,160.88939 c -3.26233,1.91971 -16.26222,23.55131 -13.83692,25.82257 0.48564,0.4548 4.24906,-0.63065 4.40995,-0.11702 0.14426,0.46057 -4.622,5.87024 -4.91395,6.77745 -1.69952,5.28115 0.22417,10.02243 -0.25199,15.07617"
         id="path876" />
      <path
         style="fill:none;stroke:currentColor;stroke-width:3;stroke-linecap:butt;stroke-linejoin:miter;stroke-miterlimit:4;stroke-dasharray:none;stroke-opacity:1"
         d="m 56.55805,168.39822 c 2.468036,-3.20462 1.299212,-6.54555 1.546344,-10.12229 0.16197,-2.34419 0.64363,-4.5192 0.526904,-6.90422 -0.08917,-1.8219 0.442473,-3.46618 0.46963,-5.24643 0.07936,-5.20226 -0.08006,-10.75195 -1.191257,-15.8368 -1.821939,-8.33722 -5.720567,-14.38357 -14.741824,-10.82442 -1.669494,0.65866 -3.811997,1.52346 -5.017032,2.91577 -0.697941,0.8064 -0.825775,2.41994 -1.225621,3.40335 -4.123817,10.14236 -3.918916,24.02004 3.734136,32.70729 4.317301,4.90072 10.375553,6.90637 15.89872,9.90775 z"
         id="path883" />
      <path
         style="fill:none;stroke:currentColor;stroke-width:3;stroke-linecap:butt;stroke-linejoin:miter;stroke-miterlimit:4;stroke-dasharray:none;stroke-opacity:1"
         d="m 56.55805,168.39822 c -2.023613,-0.0878 -4.045345,-0.25391 -6.070836,-0.2633 -0.22325,-0.001 -0.749347,0.76052 -0.904899,0.94592 -0.70159,0.83622 -1.734939,1.67731 -1.970158,2.79875 -0.612426,2.91978 4.143306,3.22019 5.887566,2.5452 1.690336,-0.65413 3.286305,-2.10087 4.661942,-3.23758 2.461512,-2.03397 5.958459,-6.41716 5.143032,-9.88825 -0.524978,-2.2347 -3.532026,-1.68821 -4.249587,-0.79964"
         id="path885" />
      <path
         style="fill:none;stroke:currentColor;stroke-width:3;stroke-linecap:butt;stroke-linejoin:miter;stroke-miterlimit:4;stroke-dasharray:none;stroke-opacity:1"
         d="m 39.665902,133.70244 c -0.646944,9.30575 12.366812,10.60113 14.206505,2.24793 1.231202,-5.59032 -7.013284,-9.50233 -10.999107,-5.87497 -1.327939,1.20851 -1.695609,2.5671 -3.207398,3.62704 z"
         id="path847" />
      <path
         style="fill:none;stroke:currentColor;stroke-width:3;stroke-linecap:butt;stroke-linejoin:miter;stroke-miterlimit:4;stroke-dasharray:none;stroke-opacity:1"
         d="m 86.014969,113.51081 c -2.171454,0.5259 -3.476001,-1.49311 -5.30339,-2.15513 -2.442409,-0.88483 -8.318834,-3.52858 -10.068425,-5.11965 -1.857859,-1.68954 -3.401849,-4.09368 -4.954032,-6.10459 -0.362524,-0.46966 -1.211802,-0.75119 -1.483347,-1.170202 -0.731038,-1.128051 -1.055566,-2.568861 -1.460436,-3.837305 -0.368345,-1.154012 -1.001662,-2.316795 -1.10535,-3.535 -0.535496,-6.29135 4.209931,-11.963236 9.953881,-13.940094 8.237866,-2.835169 13.158415,6.361827 14.043105,13.140452 0.441169,3.380324 -0.01963,6.866379 0.24054,10.244189 0.250794,3.25606 0.43325,6.65749 0.332179,9.92725 -0.0241,0.77988 -0.575826,4.49211 0.435266,3.0718"
         id="path859" />
      <path
         style="fill:none;stroke:currentColor;stroke-width:3;stroke-linecap:butt;stroke-linejoin:miter;stroke-miterlimit:4;stroke-dasharray:none;stroke-opacity:1"
         d="m 79.692137,112.20896 c -0.352457,1.31538 -1.861392,2.53179 -1.918613,3.94457 -0.07443,1.83772 2.379305,1.96476 3.5795,1.55052 3.836707,-1.32421 8.604456,-4.39247 10.194425,-8.24508 1.308499,-3.17059 -2.388725,-3.92665 -3.636775,-2.69635"
         id="path861" />
      <path
         style="fill:none;stroke:currentColor;stroke-width:3;stroke-linecap:butt;stroke-linejoin:miter;stroke-miterlimit:4;stroke-dasharray:none;stroke-opacity:1"
         d="m 69.302989,86.43027 c -0.602475,1.653886 -1.677884,3.659528 -1.076717,5.49022 1.614115,4.915329 8.761492,4.417026 11.248229,0.589981 0.844597,-1.299821 0.978151,-3.018163 1.030899,-4.515051 0.242355,-6.877653 -9.254205,-7.708148 -11.202411,-1.56515 z"
         id="path863" />
      <path
         style="fill:none;stroke:currentColor;stroke-width:3;stroke-linecap:butt;stroke-linejoin:miter;stroke-miterlimit:4;stroke-dasharray:none;stroke-opacity:1"
         d="m 112.29138,112.78918 c -1.16525,-3.82282 -2.32266,-7.66539 -2.44551,-11.69232 -0.0553,-1.81205 0.19575,-3.61169 0.38945,-5.407327 0.2259,-2.09418 0.41174,-4.220933 1.18553,-6.197222 0.34098,-0.870905 1.10978,-1.573723 1.59216,-2.374545 0.79683,-1.322851 1.47475,-2.892518 2.49706,-4.066469 1.99725,-2.293514 4.95533,-3.830706 7.61718,-5.187918 1.03398,-0.527201 2.27741,-1.142775 3.4306,-1.355492 1.77061,-0.326607 4.68071,-0.709351 6.33428,0.229166 1.26927,0.720397 4.2581,3.288853 4.60468,4.71496 0.3668,1.50935 -0.28039,3.367968 -0.57272,4.861234 -0.18223,0.930836 -0.23288,1.919131 -0.46963,2.832878 -0.42448,1.63826 -1.36196,3.049849 -2.13625,4.529677 -0.32351,0.618292 -0.53516,1.29518 -0.9049,1.886958 -0.40915,0.65487 -0.99921,1.193697 -1.51198,1.765062 -1.74032,1.939187 -3.42081,3.957038 -5.28048,5.787648 -0.63741,0.62745 -1.40684,1.06964 -2.0618,1.66755 -1.59501,1.45608 -3.13003,2.95918 -4.7593,4.37852 -0.82245,0.71647 -1.70742,1.71675 -2.81206,2.01373 -0.53548,0.14396 -4.02075,1.86586 -4.21522,1.80895 -0.16608,-0.0486 -0.32837,-0.27639 -0.48109,-0.19504 -0.54058,0.73636 -0.28468,0.61668 -0.75026,0.84841 -0.0808,0.0402 -0.31561,0.16983 -0.24627,0.11214 0.86232,-0.71745 0.33492,-0.14695 0.99653,-0.96055 z"
         id="path865" />
      <path
         style="fill:none;stroke:currentColor;stroke-width:3;stroke-linecap:butt;stroke-linejoin:miter;stroke-miterlimit:4;stroke-dasharray:none;stroke-opacity:1"
         d="m 109.81723,108.0791 c -0.67866,0.63008 -1.70403,0.32706 -2.4627,0.707 -0.45664,0.22869 -0.88308,0.63424 -1.25998,0.97517 -0.52676,0.47649 -1.08646,0.91894 -1.35735,1.59929 -0.17524,0.44011 -0.0431,0.99334 0.0573,1.4335 0.34598,1.51692 1.28239,2.69927 2.7147,3.33997 1.41616,0.63347 3.35499,0.49337 4.84521,0.24379 2.96257,-0.49617 6.89376,-1.23017 8.15554,-4.39315 0.114,-0.28578 0.30707,-0.62782 0.29782,-0.9508 -0.008,-0.29677 -0.28027,-0.46995 -0.30355,-0.65824"
         id="path867" />
      <path
         style="fill:none;stroke:currentColor;stroke-width:3;stroke-linecap:butt;stroke-linejoin:miter;stroke-miterlimit:4;stroke-dasharray:none;stroke-opacity:1"
         d="m 123.22461,84.104482 c -1.254,0.234304 -2.439,1.299114 -3.13278,2.369669 -1.56244,2.41096 -1.1414,7.260222 2.24507,7.806258 2.57031,0.414438 4.8333,-1.04549 6.72373,-2.62809 4.30531,-3.604241 -2.18911,-8.290287 -5.83602,-7.547837 z"
         id="path869" />
      <path
         style="fill:none;stroke:currentColor;stroke-width:3;stroke-linecap:butt;stroke-linejoin:miter;stroke-miterlimit:4;stroke-dasharray:none;stroke-opacity:1"
         d="m 140.10078,126.98788 c -0.12501,-1.92981 0.65182,-3.70872 1.00226,-5.55849 1.26705,-6.68797 3.84692,-14.15414 7.98372,-19.61559 0.67107,-0.88596 1.45573,-1.66265 2.17634,-2.506196 1.84049,-2.1545 3.49139,-4.645721 5.84747,-6.289863 1.22919,-0.857763 2.69025,-1.280107 4.06632,-1.833324 0.92964,-0.373743 1.89214,-0.820709 2.87505,-1.023933 1.27753,-0.264136 4.24715,-0.667086 5.43512,-0.131648 1.10494,0.498014 3.14607,2.099106 3.54514,3.344844 0.17342,0.541364 0.19202,1.122733 0.30927,1.677294 0.78671,3.72096 -0.94763,5.959136 -2.88651,8.864316 -0.69968,1.04839 -1.36586,2.15523 -2.15916,3.13518 -2.85668,3.52885 -6.7345,6.23666 -10.58387,8.55714 -2.93652,1.77019 -5.51244,4.03774 -8.36172,5.94368 -2.96897,1.986 -6.1602,3.66354 -9.24943,5.43659"
         id="path871" />
      <path
         style="fill:none;stroke:currentColor;stroke-width:3;stroke-linecap:butt;stroke-linejoin:miter;stroke-miterlimit:4;stroke-dasharray:none;stroke-opacity:1"
         d="m 140.41577,121.03932 c -0.86171,0.25711 -1.63229,-0.33776 -2.53142,-0.26817 -0.56817,0.044 -1.02828,0.53544 -1.30581,0.9898 -0.87661,1.43521 -0.63562,3.06566 0.23482,4.47605 0.50424,0.81702 1.30074,1.38882 2.09616,1.89671 1.98709,1.26878 4.20775,2.36039 6.64355,1.6968 1.37241,-0.37389 2.65866,-2.74421 1.54635,-4.01772 -0.42999,-0.4923 -1.20472,-0.47812 -1.69525,-0.8679"
         id="path873" />
      <path
         style="fill:none;stroke:currentColor;stroke-width:3;stroke-linecap:butt;stroke-linejoin:miter;stroke-miterlimit:4;stroke-dasharray:none;stroke-opacity:1"
         d="m 161.63506,97.469403 c -0.92628,0.218244 -1.80729,0.634995 -2.53142,1.257972 -2.91575,2.508455 -1.26513,6.900845 2.71469,5.997315 2.26264,-0.51368 5.33126,-2.68784 4.95404,-5.348824 -0.0907,-0.639947 -0.29382,-1.158568 -0.79036,-1.599284 -1.2248,-1.087104 -2.93694,-0.286118 -4.34695,-0.307179 z"
         id="path875" />
      <path
         style="fill:none;stroke:currentColor;stroke-width:3;stroke-linecap:butt;stroke-linejoin:miter;stroke-miterlimit:4;stroke-dasharray:none;stroke-opacity:1"
         d="m 152.6109,147.59987 c 1.52239,-2.24945 3.2473,-4.35366 5.05998,-6.37519 0.38606,-0.43054 0.73743,-0.89899 1.14544,-1.30917 0.49915,-0.5018 1.09191,-0.93206 1.63226,-1.38719 0.4983,-0.41971 1.09988,-0.7457 1.56639,-1.19702 0.41073,-0.39736 0.84997,-0.75325 1.2743,-1.13608 0.15538,-0.14017 0.27731,-0.3213 0.44386,-0.44858 0.59565,-0.45517 1.23262,-0.84556 1.86707,-1.24334 2.28089,-1.43004 3.57174,-2.16935 6.33715,-2.13075 1.34871,0.0188 2.63197,0.26 3.8,0.97029 0.22297,0.13559 0.4746,0.23588 0.67581,0.4047 0.55071,0.46206 1.0058,1.08182 1.40603,1.66998 0.15913,0.23386 0.37729,0.44014 0.51831,0.68506 0.34206,0.59407 0.65156,1.36582 0.70445,2.05761 0.0743,0.97244 -0.26622,2.03565 -0.48395,2.97672 -0.25924,1.12051 -0.65102,2.54374 -1.51485,3.36922 -0.54666,0.52239 -1.3866,1.32747 -2.05893,1.68705 -0.62984,0.33685 -1.38751,0.47232 -2.08184,0.60948 -0.57285,0.11317 -1.13901,0.25182 -1.71816,0.334 -0.71087,0.10086 -1.43542,0.10842 -2.15056,0.1609 -2.08177,0.15279 -4.18036,0.44363 -6.22261,0.87522 -0.84324,0.1782 -1.72314,0.33567 -2.58297,0.41932 -0.22105,0.0215 -0.4438,-0.008 -0.66436,-0.0146 -0.38369,-0.011 -0.76802,0.0219 -1.15116,0.0366 -0.37686,0.0144 -0.7508,-0.0419 -1.12826,-0.0366 -0.45634,0.007 -0.91253,0.0628 -1.3688,0.0585 -0.35381,-0.003 -0.71934,-0.0771 -1.07099,-0.10971 -1.09019,-0.10102 -1.50453,-0.10891 -2.23361,-0.92642 z"
         id="path877" />
      <path
         style="fill:none;stroke:currentColor;stroke-width:3;stroke-linecap:butt;stroke-linejoin:miter;stroke-miterlimit:4;stroke-dasharray:none;stroke-opacity:1"
         d="m 154.00547,145.52275 c -1.16295,-0.70577 -2.90148,-1.53938 -4.08922,-0.46565 -0.27223,0.2461 -0.48721,0.596 -0.56127,0.95811 -0.25273,1.23565 0.34795,2.49686 0.55841,3.6959 0.13877,0.79066 0.36733,2.36133 0.9278,2.92796 0.73834,0.74644 2.04892,0.29576 2.70611,-0.33156 0.46046,-0.43953 0.80088,-0.98944 0.93353,-1.61391 0.1042,-0.49052 0.14287,-0.97113 0.20618,-1.4652 0.0248,-0.1938 0.0779,-0.38324 0.0974,-0.57779 0.009,-0.0932 0.0675,-0.36115 0.0201,-0.28036 -0.21359,0.36368 0.15279,-0.21103 -0.0544,0.10971"
         id="path881" />
      <path
         style="fill:none;stroke:currentColor;stroke-width:3;stroke-linecap:butt;stroke-linejoin:miter;stroke-miterlimit:4;stroke-dasharray:none;stroke-opacity:1"
         d="m 171.77126,138.5844 c 0.15082,-0.16985 0.33126,-0.31742 0.45245,-0.50953 0.004,-0.006 -0.13641,-0.0185 -0.16895,-0.0219 -0.151,-0.0161 -0.30051,-0.0252 -0.45245,-0.0195 -0.5539,0.0207 -1.1214,0.0727 -1.64944,0.25355 -1.09864,0.37616 -1.71851,1.33392 -1.15403,2.43793 0.17731,0.34677 0.38322,0.67941 0.70731,0.90935 2.21013,1.56799 5.83213,-0.27058 4.3269,-2.97915 -0.36919,-0.66436 -0.888,-0.63663 -1.55207,-0.61924 -0.17614,0.005 -0.35134,0.0159 -0.5269,0.0195 -0.0431,8e-4 -0.1391,-0.0516 -0.12886,-0.01 0.0442,0.18074 0.0974,0.35919 0.14604,0.53879"
         id="path888" />
    </g>
  </g>
</svg>
